<svg width="429" height="241" viewBox="0 0 429 241" fill="none" xmlns="http://www.w3.org/2000/svg">
<path d="M1.14375 191.438L64.1438 53.625H78.5156L141.516 191.438H126.159L68.2781 62.0906H74.1844L16.3031 191.438H1.14375ZM25.95 154.622L30.2813 142.809H110.409L114.741 154.622H25.95Z" fill="black"/>
<path d="M395.513 191.438V168.6L394.922 164.859V126.666C394.922 117.872 392.428 111.112 387.441 106.387C382.584 101.662 375.3 99.3 365.588 99.3C358.894 99.3 352.528 100.416 346.491 102.647C340.453 104.878 335.334 107.831 331.134 111.506L324.834 101.072C330.084 96.6094 336.384 93.1969 343.734 90.8344C351.084 88.3406 358.828 87.0937 366.966 87.0937C380.353 87.0937 390.656 90.4406 397.875 97.1344C405.225 103.697 408.9 113.737 408.9 127.256V191.438H395.513ZM359.878 192.422C352.134 192.422 345.375 191.175 339.6 188.681C333.956 186.056 329.625 182.512 326.606 178.05C323.588 173.456 322.078 168.206 322.078 162.3C322.078 156.919 323.325 152.062 325.819 147.731C328.444 143.269 332.644 139.725 338.419 137.1C344.325 134.344 352.2 132.966 362.044 132.966H397.678V143.4H362.438C352.463 143.4 345.506 145.172 341.569 148.716C337.763 152.259 335.859 156.656 335.859 161.906C335.859 167.812 338.156 172.537 342.75 176.081C347.344 179.625 353.775 181.397 362.044 181.397C369.919 181.397 376.678 179.625 382.322 176.081C388.097 172.406 392.297 167.156 394.922 160.331L398.072 169.978C395.447 176.803 390.853 182.25 384.291 186.319C377.859 190.388 369.722 192.422 359.878 192.422Z" fill="black"/>
<path d="M166.125 138.812H289.875" stroke="#03EAFF" stroke-width="5.625"/>
</svg>
