<svg width="459" height="615" viewBox="0 0 459 615" fill="none" xmlns="http://www.w3.org/2000/svg">
<g clip-path="url(#clip0_184_125)">
<path d="M222.235 617.622L114.211 214.469" stroke="#03EAFF" stroke-width="5.625"/>
<mask id="path-2-inside-1_184_125" fill="white">
<path fill-rule="evenodd" clip-rule="evenodd" d="M121.384 212.096C162.401 196.213 184.442 146.229 171.029 96.17C156.797 43.0568 108.041 9.97268 62.13 22.2746C16.2186 34.5765 -9.46297 87.606 4.76867 140.719C18.2904 191.183 62.9777 223.566 106.78 216.12L100.63 239.072L138.273 228.986L121.384 212.096Z"/>
</mask>
<path fill-rule="evenodd" clip-rule="evenodd" d="M121.384 212.096C162.401 196.213 184.442 146.229 171.029 96.17C156.797 43.0568 108.041 9.97268 62.13 22.2746C16.2186 34.5765 -9.46297 87.606 4.76867 140.719C18.2904 191.183 62.9777 223.566 106.78 216.12L100.63 239.072L138.273 228.986L121.384 212.096Z" fill="white"/>
<path d="M121.384 212.096L119.352 206.85L111.301 209.968L117.406 216.073L121.384 212.096ZM106.78 216.12L112.214 217.576L114.483 209.105L105.838 210.574L106.78 216.12ZM100.63 239.072L95.1968 237.616L92.6752 247.027L102.086 244.506L100.63 239.072ZM138.273 228.986L139.729 234.419L149.14 231.897L142.251 225.008L138.273 228.986ZM165.595 97.6258C178.432 145.533 157.129 192.223 119.352 206.85L123.415 217.341C167.672 200.204 190.452 146.925 176.462 94.7141L165.595 97.6258ZM63.5859 27.7079C105.78 16.402 151.961 46.7432 165.595 97.6258L176.462 94.7141C161.633 39.3703 110.302 3.54341 60.6741 16.8413L63.5859 27.7079ZM10.202 139.263C-3.43195 88.3808 21.3913 39.0139 63.5859 27.7079L60.6741 16.8413C11.0458 30.1391 -15.494 86.8312 -0.664662 142.175L10.202 139.263ZM105.838 210.574C65.5084 217.43 23.1443 187.565 10.202 139.263L-0.664662 142.175C13.4365 194.801 60.4471 229.702 107.723 221.665L105.838 210.574ZM106.063 240.528L112.214 217.576L101.347 214.664L95.1968 237.616L106.063 240.528ZM136.818 223.552L99.1743 233.639L102.086 244.506L139.729 234.419L136.818 223.552ZM117.406 216.073L134.296 232.963L142.251 225.008L125.361 208.118L117.406 216.073Z" fill="#03EAFF" mask="url(#path-2-inside-1_184_125)"/>
<path d="M235.962 617.622L343.986 214.469" stroke="#03EAFF" stroke-width="5.625"/>
<mask id="path-5-inside-2_184_125" fill="white">
<path fill-rule="evenodd" clip-rule="evenodd" d="M336.814 212.096C295.797 196.213 273.755 146.229 287.168 96.17C301.4 43.0568 350.156 9.97268 396.067 22.2746C441.978 34.5765 467.66 87.606 453.428 140.719C439.907 191.183 395.219 223.566 351.417 216.12L357.567 239.072L319.924 228.986L336.814 212.096Z"/>
</mask>
<path fill-rule="evenodd" clip-rule="evenodd" d="M336.814 212.096C295.797 196.213 273.755 146.229 287.168 96.17C301.4 43.0568 350.156 9.97268 396.067 22.2746C441.978 34.5765 467.66 87.606 453.428 140.719C439.907 191.183 395.219 223.566 351.417 216.12L357.567 239.072L319.924 228.986L336.814 212.096Z" fill="white"/>
<path d="M336.814 212.096L338.845 206.85L346.896 209.968L340.791 216.073L336.814 212.096ZM351.417 216.12L345.984 217.576L343.714 209.105L352.36 210.574L351.417 216.12ZM357.567 239.072L363 237.616L365.522 247.027L356.111 244.506L357.567 239.072ZM319.924 228.986L318.468 234.419L309.057 231.897L315.946 225.008L319.924 228.986ZM292.602 97.6258C279.765 145.533 301.068 192.223 338.845 206.85L334.782 217.341C290.525 200.204 267.745 146.925 281.735 94.7141L292.602 97.6258ZM394.611 27.7079C352.417 16.402 306.236 46.7432 292.602 97.6258L281.735 94.7141C296.564 39.3703 347.895 3.54341 397.523 16.8413L394.611 27.7079ZM447.995 139.263C461.629 88.3808 436.806 39.0139 394.611 27.7079L397.523 16.8413C447.151 30.1391 473.691 86.8312 458.862 142.175L447.995 139.263ZM352.36 210.574C392.689 217.43 435.053 187.565 447.995 139.263L458.862 142.175C444.761 194.801 397.75 229.702 350.474 221.665L352.36 210.574ZM352.134 240.528L345.984 217.576L356.85 214.664L363 237.616L352.134 240.528ZM321.38 223.552L359.023 233.639L356.111 244.506L318.468 234.419L321.38 223.552ZM340.791 216.073L323.901 232.963L315.946 225.008L332.836 208.118L340.791 216.073Z" fill="#03EAFF" mask="url(#path-5-inside-2_184_125)"/>
<path d="M228.75 616.5V199.125" stroke="#EB1256" stroke-width="5.625"/>
<mask id="path-8-inside-3_184_125" fill="white">
<path fill-rule="evenodd" clip-rule="evenodd" d="M236.293 198.689C280.023 193.964 314.25 151.387 314.25 99.5627C314.25 44.5759 275.719 0.000213623 228.188 0.000213623C180.656 0.000213623 142.125 44.5759 142.125 99.5627C142.125 151.807 176.908 194.652 221.145 198.797L209.264 219.375H248.236L236.293 198.689Z"/>
</mask>
<path fill-rule="evenodd" clip-rule="evenodd" d="M236.293 198.689C280.023 193.964 314.25 151.387 314.25 99.5627C314.25 44.5759 275.719 0.000213623 228.188 0.000213623C180.656 0.000213623 142.125 44.5759 142.125 99.5627C142.125 151.807 176.908 194.652 221.145 198.797L209.264 219.375H248.236L236.293 198.689Z" fill="white"/>
<path d="M236.293 198.689L235.688 193.097L227.104 194.025L231.421 201.502L236.293 198.689ZM221.145 198.797L226.017 201.609L230.402 194.014L221.67 193.196L221.145 198.797ZM209.264 219.375L204.393 216.563L199.522 225H209.264V219.375ZM248.236 219.375V225H257.978L253.107 216.563L248.236 219.375ZM308.625 99.5627C308.625 149.16 275.964 188.745 235.688 193.097L236.897 204.282C284.082 199.183 319.875 153.615 319.875 99.5627H308.625ZM228.188 5.62521C271.87 5.62521 308.625 46.8852 308.625 99.5627H319.875C319.875 42.2666 279.567 -5.62479 228.188 -5.62479V5.62521ZM147.75 99.5627C147.75 46.8852 184.505 5.62521 228.188 5.62521V-5.62479C176.808 -5.62479 136.5 42.2666 136.5 99.5627H147.75ZM221.67 193.196C180.941 189.38 147.75 149.568 147.75 99.5627H136.5C136.5 154.045 172.876 199.924 220.621 204.397L221.67 193.196ZM214.136 222.188L226.017 201.609L216.274 195.984L204.393 216.563L214.136 222.188ZM248.236 213.75H209.264V225H248.236V213.75ZM231.421 201.502L243.364 222.188L253.107 216.563L241.164 195.877L231.421 201.502Z" fill="#EB1256" mask="url(#path-8-inside-3_184_125)"/>
</g>
<defs>
<clipPath id="clip0_184_125">
<rect width="459" height="615" fill="white"/>
</clipPath>
</defs>
</svg>
