<svg width="537" height="420" viewBox="0 0 537 420" fill="none" xmlns="http://www.w3.org/2000/svg">
<g filter="url(#filter0_d_150_1314)">
<rect x="2.9375" y="13.625" width="520.875" height="402.75" fill="white" stroke="#6E39F2" stroke-width="5.625"/>
<path d="M65.483 100.168L63.701 101.752L69.7895 70.9625H76.175L70.0865 101.752L68.849 100.168H84.6395L82.7585 101.752L88.847 70.9625H95.2325L88.3025 105.613H43.7525L50.6825 70.9625H57.068L50.9795 101.752L49.7915 100.168H65.483ZM115.413 106.108C111.915 106.108 108.928 105.481 106.453 104.227C103.978 102.973 102.081 101.24 100.761 99.029C99.4737 96.785 98.8302 94.211 98.8302 91.307C98.8302 88.37 99.3252 85.6475 100.315 83.1395C101.305 80.5985 102.741 78.3875 104.622 76.5065C106.503 74.6255 108.747 73.157 111.354 72.101C113.961 71.012 116.865 70.4675 120.066 70.4675C123.531 70.4675 126.501 71.0945 128.976 72.3485C131.451 73.6025 133.348 75.3515 134.668 77.5955C135.988 79.8065 136.648 82.364 136.648 85.268C136.648 88.205 136.137 90.944 135.114 93.485C134.124 95.993 132.688 98.1875 130.807 100.069C128.926 101.95 126.682 103.435 124.075 104.524C121.501 105.58 118.614 106.108 115.413 106.108ZM115.957 100.465C118.135 100.465 120.099 100.085 121.848 99.326C123.597 98.534 125.082 97.4615 126.303 96.1085C127.557 94.7225 128.514 93.1385 129.174 91.3565C129.834 89.5415 130.164 87.644 130.164 85.664C130.164 83.783 129.751 82.1165 128.926 80.6645C128.101 79.2125 126.897 78.0905 125.313 77.2985C123.729 76.5065 121.782 76.1105 119.472 76.1105C117.327 76.1105 115.363 76.5065 113.581 77.2985C111.832 78.0575 110.331 79.13 109.077 80.516C107.856 81.869 106.915 83.453 106.255 85.268C105.628 87.05 105.315 88.931 105.315 90.911C105.315 92.792 105.711 94.4585 106.503 95.9105C107.328 97.3625 108.532 98.4845 110.116 99.2765C111.7 100.069 113.647 100.465 115.957 100.465ZM140.142 105.613L147.072 70.9625H153.507L146.577 105.613H140.142ZM147.617 90.9605L148.656 85.466H160.289L159.299 90.9605H147.617ZM163.506 105.613L155.141 88.6835L160.487 85.7135L170.387 105.613H163.506ZM160.586 88.931L154.448 88.1885L169.743 70.9625H176.97L160.586 88.931ZM177.843 94.1285L181.209 70.9625H188.585L182.744 94.1285H177.843ZM178.487 105.959C177.398 105.959 176.49 105.613 175.764 104.92C175.071 104.194 174.725 103.352 174.725 102.395C174.725 101.207 175.121 100.234 175.913 99.4745C176.738 98.6825 177.711 98.2865 178.833 98.2865C179.922 98.2865 180.813 98.633 181.506 99.326C182.232 99.986 182.595 100.828 182.595 101.851C182.595 102.577 182.414 103.27 182.051 103.93C181.688 104.557 181.193 105.052 180.566 105.415C179.972 105.778 179.279 105.959 178.487 105.959ZM213.567 106.108C211.29 106.108 209.013 105.778 206.736 105.118C204.492 104.458 202.446 103.435 200.598 102.049L203.617 97.346C204.97 98.435 206.521 99.2435 208.27 99.7715C210.052 100.3 211.834 100.564 213.616 100.564C214.969 100.564 216.256 100.432 217.477 100.168C218.698 99.8705 219.787 99.458 220.744 98.93C221.734 98.402 222.493 97.7585 223.021 96.9995C223.582 96.2075 223.863 95.3165 223.863 94.3265C223.863 93.0065 223.351 92.0165 222.328 91.3565C221.338 90.6635 219.82 90.317 217.774 90.317H209.557L210.547 85.268H218.418C219.837 85.268 221.041 85.07 222.031 84.674C223.054 84.245 223.846 83.651 224.407 82.892C224.968 82.133 225.249 81.275 225.249 80.318C225.249 79.328 224.952 78.503 224.358 77.843C223.764 77.183 222.939 76.688 221.883 76.358C220.86 76.028 219.672 75.863 218.319 75.863C216.834 75.863 215.233 76.0775 213.517 76.5065C211.801 76.9025 210.085 77.5625 208.369 78.4865L207.379 73.289C209.392 72.332 211.405 71.6225 213.418 71.1605C215.464 70.6985 217.411 70.4675 219.259 70.4675C221.635 70.4675 223.78 70.814 225.694 71.507C227.608 72.2 229.126 73.2065 230.248 74.5265C231.403 75.8135 231.981 77.3645 231.981 79.1795C231.981 80.9285 231.453 82.5125 230.397 83.9315C229.374 85.3505 227.955 86.456 226.14 87.248C224.358 88.04 222.312 88.436 220.002 88.436L220.546 86.852C222.493 86.852 224.193 87.1985 225.645 87.8915C227.097 88.5515 228.219 89.4755 229.011 90.6635C229.836 91.8515 230.248 93.254 230.248 94.871C230.248 96.554 229.786 98.105 228.862 99.524C227.971 100.91 226.734 102.098 225.15 103.088C223.566 104.045 221.784 104.788 219.804 105.316C217.824 105.844 215.745 106.108 213.567 106.108ZM235.367 105.613L242.297 70.9625H258.286C261.916 70.9625 264.704 71.6225 266.651 72.9425C268.598 74.2625 269.572 76.193 269.572 78.734C269.572 80.912 269.011 82.7435 267.889 84.2285C266.8 85.7135 265.381 86.8355 263.632 87.5945C261.916 88.3535 260.068 88.733 258.088 88.733L259.325 87.05C261.932 87.05 264.044 87.71 265.661 89.03C267.278 90.317 268.087 92.2145 268.087 94.7225C268.087 97.1315 267.427 99.1445 266.107 100.762C264.82 102.379 263.021 103.6 260.711 104.425C258.434 105.217 255.778 105.613 252.742 105.613H235.367ZM242.792 100.564H253.187C255.86 100.564 257.939 100.069 259.424 99.0785C260.909 98.0885 261.652 96.6365 261.652 94.7225C261.652 93.1715 261.107 92.099 260.018 91.505C258.929 90.878 257.395 90.5645 255.415 90.5645H243.881L244.871 85.565H254.92C256.504 85.565 257.89 85.367 259.078 84.971C260.299 84.542 261.223 83.8985 261.85 83.0405C262.51 82.1495 262.84 81.077 262.84 79.823C262.84 78.503 262.312 77.546 261.256 76.952C260.233 76.325 258.764 76.0115 256.85 76.0115H247.693L242.792 100.564ZM283.171 85.367H300.447L299.407 90.6635H282.132L283.171 85.367ZM280.696 100.217H300.298L299.209 105.613H273.222L280.152 70.9625H305.446L304.357 76.358H285.448L280.696 100.217ZM316.53 106.108C314.253 106.108 311.976 105.778 309.699 105.118C307.455 104.458 305.409 103.435 303.561 102.049L306.581 97.346C307.934 98.435 309.485 99.2435 311.234 99.7715C313.016 100.3 314.798 100.564 316.58 100.564C317.933 100.564 319.22 100.432 320.441 100.168C321.662 99.8705 322.751 99.458 323.708 98.93C324.698 98.402 325.457 97.7585 325.985 96.9995C326.546 96.2075 326.826 95.3165 326.826 94.3265C326.826 93.0065 326.315 92.0165 325.292 91.3565C324.302 90.6635 322.784 90.317 320.738 90.317H312.521L313.511 85.268H321.381C322.8 85.268 324.005 85.07 324.995 84.674C326.018 84.245 326.81 83.651 327.371 82.892C327.932 82.133 328.212 81.275 328.212 80.318C328.212 79.328 327.915 78.503 327.321 77.843C326.727 77.183 325.902 76.688 324.846 76.358C323.823 76.028 322.635 75.863 321.282 75.863C319.797 75.863 318.197 76.0775 316.481 76.5065C314.765 76.9025 313.049 77.5625 311.333 78.4865L310.343 73.289C312.356 72.332 314.369 71.6225 316.382 71.1605C318.428 70.6985 320.375 70.4675 322.223 70.4675C324.599 70.4675 326.744 70.814 328.658 71.507C330.572 72.2 332.09 73.2065 333.212 74.5265C334.367 75.8135 334.944 77.3645 334.944 79.1795C334.944 80.9285 334.416 82.5125 333.36 83.9315C332.337 85.3505 330.918 86.456 329.103 87.248C327.321 88.04 325.275 88.436 322.965 88.436L323.51 86.852C325.457 86.852 327.156 87.1985 328.608 87.8915C330.06 88.5515 331.182 89.4755 331.974 90.6635C332.799 91.8515 333.212 93.254 333.212 94.871C333.212 96.554 332.75 98.105 331.826 99.524C330.935 100.91 329.697 102.098 328.113 103.088C326.529 104.045 324.747 104.788 322.767 105.316C320.787 105.844 318.708 106.108 316.53 106.108ZM362.14 102.643L367.387 76.4075H353.775L352.29 82.793C351.729 85.07 351.151 87.248 350.557 89.327C349.996 91.373 349.369 93.2375 348.676 94.9205C347.983 96.5705 347.208 97.9565 346.35 99.0785C345.525 100.168 344.601 100.894 343.578 101.257L336.351 100.168C337.605 100.234 338.743 99.8045 339.766 98.8805C340.789 97.9235 341.713 96.6035 342.538 94.9205C343.396 93.2375 344.172 91.274 344.865 89.03C345.558 86.753 346.218 84.311 346.845 81.704L349.369 70.9625H374.812L368.476 102.643H362.14ZM332.886 112.988L335.509 100.168H373.971L371.397 112.988H365.457L366.942 105.613H340.36L338.875 112.988H332.886ZM374.584 105.613L397.106 70.9625H403.492L412.105 105.613H405.719L398.492 74.279H401.066L381.464 105.613H374.584ZM383.395 97.5935L386.117 92.5445H404.779L405.62 97.5935H383.395ZM43.5545 165.613L50.4845 130.963H63.8495C68.0405 130.963 71.2745 131.887 73.5515 133.735C75.8615 135.583 77.0165 138.14 77.0165 141.407C77.0165 144.344 76.34 146.885 74.987 149.03C73.667 151.142 71.7695 152.776 69.2945 153.931C66.8195 155.053 63.8825 155.614 60.4835 155.614H49.1975L52.613 152.545L49.9895 165.613H43.5545ZM52.4645 153.287L50.1875 150.169H60.731C63.833 150.169 66.242 149.476 67.958 148.09C69.674 146.704 70.532 144.674 70.532 142.001C70.532 140.12 69.8885 138.718 68.6015 137.794C67.3475 136.87 65.5325 136.408 63.1565 136.408H53.108L56.474 133.19L52.4645 153.287ZM97.0435 166.108C93.5455 166.108 90.559 165.481 88.084 164.227C85.609 162.973 83.7115 161.24 82.3915 159.029C81.1045 156.785 80.461 154.211 80.461 151.307C80.461 148.37 80.956 145.648 81.946 143.14C82.936 140.599 84.3715 138.388 86.2525 136.507C88.1335 134.626 90.3775 133.157 92.9845 132.101C95.5915 131.012 98.4955 130.468 101.697 130.468C105.162 130.468 108.132 131.095 110.607 132.349C113.082 133.603 114.979 135.352 116.299 137.596C117.619 139.807 118.279 142.364 118.279 145.268C118.279 148.205 117.768 150.944 116.745 153.485C115.755 155.993 114.319 158.188 112.438 160.069C110.557 161.95 108.313 163.435 105.706 164.524C103.132 165.58 100.245 166.108 97.0435 166.108ZM97.588 160.465C99.766 160.465 101.73 160.085 103.479 159.326C105.228 158.534 106.713 157.462 107.934 156.109C109.188 154.723 110.145 153.139 110.805 151.357C111.465 149.542 111.795 147.644 111.795 145.664C111.795 143.783 111.382 142.117 110.557 140.665C109.732 139.213 108.528 138.091 106.944 137.299C105.36 136.507 103.413 136.111 101.103 136.111C98.9575 136.111 96.994 136.507 95.212 137.299C93.463 138.058 91.9615 139.13 90.7075 140.516C89.4865 141.869 88.546 143.453 87.886 145.268C87.259 147.05 86.9455 148.931 86.9455 150.911C86.9455 152.792 87.3415 154.459 88.1335 155.911C88.9585 157.363 90.163 158.485 91.747 159.277C93.331 160.069 95.278 160.465 97.588 160.465ZM139.395 166.108C135.864 166.108 132.845 165.481 130.337 164.227C127.829 162.973 125.898 161.24 124.545 159.029C123.225 156.785 122.565 154.211 122.565 151.307C122.565 148.37 123.06 145.648 124.05 143.14C125.073 140.599 126.525 138.388 128.406 136.507C130.287 134.626 132.531 133.157 135.138 132.101C137.745 131.012 140.666 130.468 143.9 130.468C146.903 130.468 149.543 130.963 151.82 131.953C154.097 132.943 155.846 134.378 157.067 136.259L152.414 140.17C151.457 138.85 150.236 137.843 148.751 137.15C147.266 136.457 145.5 136.111 143.454 136.111C141.243 136.111 139.247 136.49 137.465 137.249C135.683 138.008 134.165 139.081 132.911 140.467C131.657 141.82 130.7 143.404 130.04 145.219C129.38 147.001 129.05 148.898 129.05 150.911C129.05 152.792 129.462 154.459 130.287 155.911C131.112 157.363 132.333 158.485 133.95 159.277C135.567 160.069 137.547 160.465 139.89 160.465C141.837 160.465 143.636 160.135 145.286 159.475C146.969 158.815 148.454 157.808 149.741 156.455L153.503 160.514C151.82 162.428 149.757 163.847 147.315 164.771C144.906 165.662 142.266 166.108 139.395 166.108ZM175.167 166.108C171.636 166.108 168.616 165.481 166.108 164.227C163.6 162.973 161.67 161.24 160.317 159.029C158.997 156.785 158.337 154.211 158.337 151.307C158.337 148.37 158.832 145.648 159.822 143.14C160.845 140.599 162.297 138.388 164.178 136.507C166.059 134.626 168.303 133.157 170.91 132.101C173.517 131.012 176.437 130.468 179.671 130.468C182.674 130.468 185.314 130.963 187.591 131.953C189.868 132.943 191.617 134.378 192.838 136.259L188.185 140.17C187.228 138.85 186.007 137.843 184.522 137.15C183.037 136.457 181.272 136.111 179.226 136.111C177.015 136.111 175.018 136.49 173.236 137.249C171.454 138.008 169.936 139.081 168.682 140.467C167.428 141.82 166.471 143.404 165.811 145.219C165.151 147.001 164.821 148.898 164.821 150.911C164.821 152.792 165.234 154.459 166.059 155.911C166.884 157.363 168.105 158.485 169.722 159.277C171.339 160.069 173.319 160.465 175.662 160.465C177.609 160.465 179.407 160.135 181.057 159.475C182.74 158.815 184.225 157.808 185.512 156.455L189.274 160.514C187.591 162.428 185.529 163.847 183.087 164.771C180.678 165.662 178.038 166.108 175.167 166.108ZM194.041 165.613L200.971 130.963H207.357L202.357 155.564L225.87 130.963H231.958L225.028 165.613H218.643L223.692 141.061L200.13 165.613H194.041ZM234.743 165.613L241.673 130.963H248.059L243.059 155.564L266.572 130.963H272.66L265.73 165.613H259.345L264.394 141.061L240.832 165.613H234.743ZM43.7525 225.613L50.6825 190.963H81.3725L74.4425 225.613H68.057L74.1455 194.824L75.284 196.408H54.3455L56.177 194.824L50.138 225.613H43.7525ZM84.015 225.613L90.945 190.963H104.31C108.501 190.963 111.735 191.887 114.012 193.735C116.322 195.583 117.477 198.14 117.477 201.407C117.477 204.344 116.8 206.885 115.447 209.03C114.127 211.142 112.23 212.776 109.755 213.931C107.28 215.053 104.343 215.614 100.944 215.614H89.658L93.0735 212.545L90.45 225.613H84.015ZM92.925 213.287L90.648 210.169H101.191C104.293 210.169 106.702 209.476 108.418 208.09C110.134 206.704 110.992 204.674 110.992 202.001C110.992 200.12 110.349 198.718 109.062 197.794C107.808 196.87 105.993 196.408 103.617 196.408H93.5685L96.9345 193.19L92.925 213.287ZM119.646 225.613L126.576 190.963H132.962L127.962 215.564L151.475 190.963H157.563L150.633 225.613H144.248L149.297 201.061L125.735 225.613H119.646ZM170.496 226.108C168.219 226.108 165.942 225.778 163.665 225.118C161.421 224.458 159.375 223.435 157.527 222.049L160.546 217.346C161.899 218.435 163.45 219.244 165.199 219.772C166.981 220.3 168.763 220.564 170.545 220.564C171.898 220.564 173.185 220.432 174.406 220.168C175.627 219.871 176.716 219.458 177.673 218.93C178.663 218.402 179.422 217.759 179.95 217C180.511 216.208 180.792 215.317 180.792 214.327C180.792 213.007 180.28 212.017 179.257 211.357C178.267 210.664 176.749 210.317 174.703 210.317H166.486L167.476 205.268H175.347C176.766 205.268 177.97 205.07 178.96 204.674C179.983 204.245 180.775 203.651 181.336 202.892C181.897 202.133 182.178 201.275 182.178 200.318C182.178 199.328 181.881 198.503 181.287 197.843C180.693 197.183 179.868 196.688 178.812 196.358C177.789 196.028 176.601 195.863 175.248 195.863C173.763 195.863 172.162 196.078 170.446 196.507C168.73 196.903 167.014 197.563 165.298 198.487L164.308 193.289C166.321 192.332 168.334 191.623 170.347 191.161C172.393 190.699 174.34 190.468 176.188 190.468C178.564 190.468 180.709 190.814 182.623 191.507C184.537 192.2 186.055 193.207 187.177 194.527C188.332 195.814 188.91 197.365 188.91 199.18C188.91 200.929 188.382 202.513 187.326 203.932C186.303 205.351 184.884 206.456 183.069 207.248C181.287 208.04 179.241 208.436 176.931 208.436L177.475 206.852C179.422 206.852 181.122 207.199 182.574 207.892C184.026 208.552 185.148 209.476 185.94 210.664C186.765 211.852 187.177 213.254 187.177 214.871C187.177 216.554 186.715 218.105 185.791 219.524C184.9 220.91 183.663 222.098 182.079 223.088C180.495 224.045 178.713 224.788 176.733 225.316C174.753 225.844 172.674 226.108 170.496 226.108ZM223.778 190.963H230.164L223.234 225.613H216.848L223.778 190.963ZM198.929 225.613H192.494L199.424 190.963H205.859L198.929 225.613ZM220.313 210.763H201.454L202.493 205.268H221.452L220.313 210.763ZM228.598 225.613L251.12 190.963H257.506L266.119 225.613H259.733L252.506 194.279H255.08L235.478 225.613H228.598ZM237.409 217.594L240.131 212.545H258.793L259.634 217.594H237.409ZM270.886 226.108C270.292 226.108 269.731 226.058 269.203 225.959C268.642 225.893 268.032 225.778 267.372 225.613L268.906 220.019C269.302 220.151 269.748 220.217 270.243 220.217C271.596 220.217 272.767 219.739 273.757 218.782C274.747 217.825 275.671 216.257 276.529 214.079C277.387 211.901 278.262 208.981 279.153 205.318L282.568 190.963H308.061L301.131 225.613H294.795L300.933 194.824L302.121 196.408H285.637L287.32 194.774L284.845 205.417C283.921 209.278 282.997 212.528 282.073 215.168C281.182 217.808 280.192 219.937 279.103 221.554C278.047 223.138 276.843 224.293 275.49 225.019C274.17 225.745 272.635 226.108 270.886 226.108ZM306.473 225.613L328.996 190.963H335.381L343.994 225.613H337.609L330.382 194.279H332.956L313.354 225.613H306.473ZM315.284 217.594L318.007 212.545H336.668L337.51 217.594H315.284ZM366.496 226.108C362.965 226.108 359.945 225.481 357.437 224.227C354.929 222.973 352.999 221.24 351.646 219.029C350.326 216.785 349.666 214.211 349.666 211.307C349.666 208.37 350.161 205.648 351.151 203.14C352.174 200.599 353.626 198.388 355.507 196.507C357.388 194.626 359.632 193.157 362.239 192.101C364.846 191.012 367.766 190.468 371 190.468C374.003 190.468 376.643 190.963 378.92 191.953C381.197 192.943 382.946 194.378 384.167 196.259L379.514 200.17C378.557 198.85 377.336 197.843 375.851 197.15C374.366 196.457 372.601 196.111 370.555 196.111C368.344 196.111 366.347 196.49 364.565 197.249C362.783 198.008 361.265 199.081 360.011 200.467C358.757 201.82 357.8 203.404 357.14 205.219C356.48 207.001 356.15 208.898 356.15 210.911C356.15 212.792 356.563 214.459 357.388 215.911C358.213 217.363 359.434 218.485 361.051 219.277C362.668 220.069 364.648 220.465 366.991 220.465C368.938 220.465 370.736 220.135 372.386 219.475C374.069 218.815 375.554 217.808 376.841 216.455L380.603 220.514C378.92 222.428 376.858 223.847 374.416 224.771C372.007 225.662 369.367 226.108 366.496 226.108ZM405.467 202.694C413.156 202.694 417.001 205.813 417.001 212.05C417.001 214.789 416.308 217.181 414.922 219.227C413.569 221.24 411.638 222.808 409.13 223.93C406.622 225.052 403.685 225.613 400.319 225.613H385.37L392.3 190.963H398.686L396.31 202.694H405.467ZM401.012 220.663C402.893 220.663 404.527 220.349 405.913 219.722C407.332 219.062 408.421 218.138 409.18 216.95C409.939 215.762 410.318 214.36 410.318 212.743C410.318 210.961 409.807 209.657 408.784 208.832C407.761 208.007 406.111 207.595 403.834 207.595H395.32L392.746 220.663H401.012ZM416.215 233.087L421.264 222.148L421.907 225.959C420.818 225.959 419.894 225.596 419.135 224.87C418.409 224.144 418.046 223.22 418.046 222.098C418.046 220.811 418.475 219.772 419.333 218.98C420.191 218.155 421.198 217.742 422.353 217.742C423.442 217.742 424.349 218.105 425.075 218.831C425.801 219.524 426.164 220.448 426.164 221.603C426.164 222.197 426.049 222.775 425.818 223.336C425.62 223.897 425.257 224.59 424.729 225.415L420.175 233.087H416.215ZM68.255 272.248C66.275 273.007 64.394 273.551 62.612 273.881C60.863 274.211 59.246 274.376 57.761 274.376C53.24 274.376 49.9565 273.271 47.9105 271.06C45.8645 268.849 45.2375 265.763 46.0295 261.803L48.2075 250.963H54.5435L52.415 261.506C51.92 263.981 52.217 265.829 53.306 267.05C54.428 268.238 56.243 268.832 58.751 268.832C60.467 268.832 62.183 268.634 63.899 268.238C65.615 267.809 67.265 267.215 68.849 266.456L68.255 272.248ZM64.394 285.613L71.324 250.963H77.66L70.73 285.613H64.394ZM87.7673 285.613L93.8063 254.824L95.0438 256.408H82.1738L83.2628 250.963H112.517L111.428 256.408H98.3603L100.192 254.824L94.1528 285.613H87.7673ZM128.078 286.108C124.58 286.108 121.593 285.481 119.118 284.227C116.643 282.973 114.746 281.24 113.426 279.029C112.139 276.785 111.495 274.211 111.495 271.307C111.495 268.37 111.99 265.648 112.98 263.14C113.97 260.599 115.406 258.388 117.287 256.507C119.168 254.626 121.412 253.157 124.019 252.101C126.626 251.012 129.53 250.468 132.731 250.468C136.196 250.468 139.166 251.095 141.641 252.349C144.116 253.603 146.013 255.352 147.333 257.596C148.653 259.807 149.313 262.364 149.313 265.268C149.313 268.205 148.802 270.944 147.779 273.485C146.789 275.993 145.353 278.188 143.472 280.069C141.591 281.95 139.347 283.435 136.74 284.524C134.166 285.58 131.279 286.108 128.078 286.108ZM128.622 280.465C130.8 280.465 132.764 280.085 134.513 279.326C136.262 278.534 137.747 277.462 138.968 276.109C140.222 274.723 141.179 273.139 141.839 271.357C142.499 269.542 142.829 267.644 142.829 265.664C142.829 263.783 142.416 262.117 141.591 260.665C140.766 259.213 139.562 258.091 137.978 257.299C136.394 256.507 134.447 256.111 132.137 256.111C129.992 256.111 128.028 256.507 126.246 257.299C124.497 258.058 122.996 259.13 121.742 260.516C120.521 261.869 119.58 263.453 118.92 265.268C118.293 267.05 117.98 268.931 117.98 270.911C117.98 272.792 118.376 274.459 119.168 275.911C119.993 277.363 121.197 278.485 122.781 279.277C124.365 280.069 126.312 280.465 128.622 280.465ZM153.573 285.959C152.484 285.959 151.56 285.596 150.801 284.87C150.075 284.144 149.712 283.22 149.712 282.098C149.712 280.811 150.141 279.772 150.999 278.98C151.857 278.155 152.863 277.742 154.018 277.742C155.107 277.742 156.015 278.105 156.741 278.831C157.467 279.524 157.83 280.448 157.83 281.603C157.83 282.461 157.632 283.22 157.236 283.88C156.84 284.54 156.312 285.052 155.652 285.415C155.025 285.778 154.332 285.959 153.573 285.959ZM165.658 285.959C164.569 285.959 163.645 285.596 162.886 284.87C162.16 284.144 161.797 283.22 161.797 282.098C161.797 280.811 162.226 279.772 163.084 278.98C163.942 278.155 164.948 277.742 166.103 277.742C167.192 277.742 168.1 278.105 168.826 278.831C169.552 279.524 169.915 280.448 169.915 281.603C169.915 282.461 169.717 283.22 169.321 283.88C168.925 284.54 168.397 285.052 167.737 285.415C167.11 285.778 166.417 285.959 165.658 285.959ZM177.743 285.959C176.654 285.959 175.73 285.596 174.971 284.87C174.245 284.144 173.882 283.22 173.882 282.098C173.882 280.811 174.311 279.772 175.169 278.98C176.027 278.155 177.033 277.742 178.188 277.742C179.277 277.742 180.185 278.105 180.911 278.831C181.637 279.524 182 280.448 182 281.603C182 282.461 181.802 283.22 181.406 283.88C181.01 284.54 180.482 285.052 179.822 285.415C179.195 285.778 178.502 285.959 177.743 285.959Z" fill="#6E39F2"/>
<path d="M56.834 323.562C55.664 324.102 54.494 324.516 53.324 324.804C52.154 325.092 51.047 325.236 50.003 325.236C47.915 325.236 46.277 324.732 45.089 323.724C43.919 322.698 43.334 321.285 43.334 319.485V313.113H44.252V319.431C44.252 320.997 44.765 322.221 45.791 323.103C46.817 323.967 48.23 324.399 50.03 324.399C51.074 324.399 52.172 324.255 53.324 323.967C54.476 323.661 55.655 323.229 56.861 322.671L56.834 323.562ZM56.564 332.013V313.113H57.482V332.013H56.564ZM64.6007 332.013V313.113H65.5187V330.42L78.9917 313.113H79.7477V332.013H78.8567V314.706L65.3567 332.013H64.6007ZM90.4984 332.013V313.626L90.8224 313.95H83.5864V313.113H98.3284V313.95H91.0924L91.4164 313.626V332.013H90.4984ZM98.2014 332.013L106.949 313.113H107.84L116.588 332.013H115.589L107.192 313.734H107.597L99.2004 332.013H98.2014ZM101.225 326.478L101.576 325.695H113.132L113.483 326.478H101.225ZM123.352 332.013V313.626L123.676 313.95H116.44V313.113H131.182V313.95H123.946L124.27 313.626V332.013H123.352ZM142.345 320.16C144.559 320.16 146.242 320.655 147.394 321.645C148.546 322.617 149.122 324.066 149.122 325.992C149.122 327.972 148.519 329.475 147.313 330.501C146.107 331.509 144.343 332.013 142.021 332.013H135.001V313.113H135.919V320.16H142.345ZM142.102 331.23C144.118 331.23 145.639 330.798 146.665 329.934C147.691 329.052 148.204 327.747 148.204 326.019C148.204 324.309 147.7 323.04 146.692 322.212C145.684 321.366 144.154 320.943 142.102 320.943H135.919V331.23H142.102ZM160.894 332.013V313.113H176.203V332.013H175.285V313.626L175.609 313.95H161.488L161.812 313.626V332.013H160.894ZM183.332 332.013V313.113H189.893C191.459 313.113 192.8 313.365 193.916 313.869C195.05 314.373 195.914 315.093 196.508 316.029C197.102 316.947 197.399 318.063 197.399 319.377C197.399 320.691 197.102 321.816 196.508 322.752C195.914 323.688 195.05 324.408 193.916 324.912C192.8 325.416 191.459 325.668 189.893 325.668H183.845L184.25 325.236V332.013H183.332ZM184.25 325.236L183.845 324.831H189.947C192.071 324.831 193.691 324.354 194.807 323.4C195.941 322.446 196.508 321.105 196.508 319.377C196.508 317.649 195.941 316.317 194.807 315.381C193.691 314.427 192.071 313.95 189.947 313.95H183.845L184.25 313.518V325.236ZM210.282 332.121C208.896 332.121 207.609 331.887 206.421 331.419C205.233 330.933 204.198 330.258 203.316 329.394C202.434 328.53 201.75 327.522 201.264 326.37C200.778 325.2 200.535 323.931 200.535 322.563C200.535 321.195 200.778 319.935 201.264 318.783C201.75 317.613 202.434 316.596 203.316 315.732C204.198 314.868 205.233 314.202 206.421 313.734C207.609 313.248 208.896 313.005 210.282 313.005C211.686 313.005 212.982 313.248 214.17 313.734C215.358 314.202 216.384 314.868 217.248 315.732C218.13 316.596 218.814 317.613 219.3 318.783C219.804 319.935 220.056 321.195 220.056 322.563C220.056 323.931 219.804 325.2 219.3 326.37C218.814 327.522 218.13 328.53 217.248 329.394C216.384 330.258 215.358 330.933 214.17 331.419C212.982 331.887 211.686 332.121 210.282 332.121ZM210.282 331.284C211.542 331.284 212.712 331.068 213.792 330.636C214.872 330.204 215.808 329.592 216.6 328.8C217.41 328.008 218.031 327.09 218.463 326.046C218.913 324.984 219.138 323.823 219.138 322.563C219.138 321.303 218.913 320.151 218.463 319.107C218.031 318.045 217.41 317.118 216.6 316.326C215.808 315.534 214.872 314.922 213.792 314.49C212.712 314.058 211.542 313.842 210.282 313.842C209.04 313.842 207.879 314.058 206.799 314.49C205.719 314.922 204.774 315.534 203.964 316.326C203.172 317.118 202.551 318.045 202.101 319.107C201.669 320.151 201.453 321.303 201.453 322.563C201.453 323.823 201.669 324.984 202.101 326.046C202.551 327.09 203.172 328.008 203.964 328.8C204.774 329.592 205.719 330.204 206.799 330.636C207.879 331.068 209.04 331.284 210.282 331.284ZM237.415 331.581V313.95H227.236L227.047 319.431C226.993 320.979 226.903 322.473 226.777 323.913C226.651 325.335 226.453 326.613 226.183 327.747C225.931 328.863 225.571 329.763 225.103 330.447C224.653 331.113 224.077 331.464 223.375 331.5L222.268 331.176C223.042 331.23 223.672 330.96 224.158 330.366C224.644 329.772 225.031 328.926 225.319 327.828C225.607 326.73 225.814 325.461 225.94 324.021C226.066 322.563 226.156 321.015 226.21 319.377L226.399 313.113H238.333V331.581H237.415ZM221.566 336.414L221.593 331.176H241.276V336.414H240.385V332.013H222.457L222.43 336.414H221.566ZM253.893 332.121C252.507 332.121 251.22 331.887 250.032 331.419C248.844 330.933 247.809 330.258 246.927 329.394C246.045 328.53 245.361 327.522 244.875 326.37C244.389 325.2 244.146 323.931 244.146 322.563C244.146 321.195 244.389 319.935 244.875 318.783C245.361 317.613 246.045 316.596 246.927 315.732C247.809 314.868 248.844 314.202 250.032 313.734C251.22 313.248 252.507 313.005 253.893 313.005C255.297 313.005 256.593 313.248 257.781 313.734C258.969 314.202 259.995 314.868 260.859 315.732C261.741 316.596 262.425 317.613 262.911 318.783C263.415 319.935 263.667 321.195 263.667 322.563C263.667 323.931 263.415 325.2 262.911 326.37C262.425 327.522 261.741 328.53 260.859 329.394C259.995 330.258 258.969 330.933 257.781 331.419C256.593 331.887 255.297 332.121 253.893 332.121ZM253.893 331.284C255.153 331.284 256.323 331.068 257.403 330.636C258.483 330.204 259.419 329.592 260.211 328.8C261.021 328.008 261.642 327.09 262.074 326.046C262.524 324.984 262.749 323.823 262.749 322.563C262.749 321.303 262.524 320.151 262.074 319.107C261.642 318.045 261.021 317.118 260.211 316.326C259.419 315.534 258.483 314.922 257.403 314.49C256.323 314.058 255.153 313.842 253.893 313.842C252.651 313.842 251.49 314.058 250.41 314.49C249.33 314.922 248.385 315.534 247.575 316.326C246.783 317.118 246.162 318.045 245.712 319.107C245.28 320.151 245.064 321.303 245.064 322.563C245.064 323.823 245.28 324.984 245.712 326.046C246.162 327.09 246.783 328.008 247.575 328.8C248.385 329.592 249.33 330.204 250.41 330.636C251.49 331.068 252.651 331.284 253.893 331.284ZM266.365 332.121C266.167 332.121 265.969 332.103 265.771 332.067C265.591 332.049 265.384 332.013 265.15 331.959L265.285 331.122C265.609 331.194 265.915 331.23 266.203 331.23C267.031 331.23 267.706 330.906 268.228 330.258C268.768 329.61 269.182 328.566 269.47 327.126C269.758 325.686 269.947 323.778 270.037 321.402L270.334 313.113H282.349V332.013H281.458V313.626L281.782 313.95H270.874L271.171 313.626L270.874 321.429C270.82 323.319 270.694 324.948 270.496 326.316C270.298 327.666 270.01 328.764 269.632 329.61C269.272 330.456 268.822 331.086 268.282 331.5C267.742 331.914 267.103 332.121 266.365 332.121ZM310.6 332.013L303.742 322.428L304.525 322.023L311.707 332.013H310.6ZM299.368 322.833V321.996H304.525V322.833H299.368ZM304.552 322.644L303.742 322.401L310.087 313.113H311.14L304.552 322.644ZM287.839 332.013H286.759L293.914 322.023L294.697 322.428L287.839 332.013ZM299.665 332.013H298.774V313.113H299.665V332.013ZM299.098 322.833H293.914V321.996H299.098V322.833ZM293.887 322.644L287.299 313.113H288.352L294.724 322.401L293.887 322.644ZM316.135 321.996H326.557V322.833H316.135V321.996ZM316.297 331.176H328.15V332.013H315.379V313.113H327.772V313.95H316.297V331.176ZM347.062 313.113H347.98V332.013H347.062V313.113ZM333.805 332.013H332.887V313.113H333.805V332.013ZM347.224 322.833H333.643V321.996H347.224V322.833ZM355.114 332.013V313.113H356.032V330.42L369.505 313.113H370.261V332.013H369.37V314.706L355.87 332.013H355.114ZM378.177 321.996H388.599V322.833H378.177V321.996ZM378.339 331.176H390.192V332.013H377.421V313.113H389.814V313.95H378.339V331.176ZM45.089 365.013V346.113H52.514C54.404 346.113 55.907 346.518 57.023 347.328C58.157 348.12 58.724 349.308 58.724 350.892C58.724 352.476 58.184 353.655 57.104 354.429C56.024 355.203 54.62 355.59 52.892 355.59L53.351 355.158C55.439 355.158 57.014 355.572 58.076 356.4C59.156 357.228 59.696 358.443 59.696 360.045C59.696 361.629 59.147 362.853 58.049 363.717C56.951 364.581 55.277 365.013 53.027 365.013H45.089ZM46.007 364.23H53.108C54.962 364.23 56.366 363.888 57.32 363.204C58.292 362.52 58.778 361.449 58.778 359.991C58.778 358.533 58.292 357.471 57.32 356.805C56.366 356.139 54.962 355.806 53.108 355.806H46.007V364.23ZM46.007 355.023H52.541C54.215 355.023 55.511 354.681 56.429 353.997C57.347 353.313 57.806 352.305 57.806 350.973C57.806 349.641 57.347 348.633 56.429 347.949C55.511 347.247 54.215 346.896 52.541 346.896H46.007V355.023ZM72.1945 365.013V346.113H73.1125V363.42L86.5855 346.113H87.3415V365.013H86.4505V347.706L72.9505 365.013H72.1945ZM102.466 365.121C101.08 365.121 99.7931 364.887 98.6051 364.419C97.4171 363.933 96.3821 363.258 95.5001 362.394C94.6181 361.53 93.9341 360.522 93.4481 359.37C92.9621 358.2 92.7191 356.931 92.7191 355.563C92.7191 354.195 92.9621 352.935 93.4481 351.783C93.9341 350.613 94.6181 349.596 95.5001 348.732C96.3821 347.868 97.4171 347.202 98.6051 346.734C99.7931 346.248 101.08 346.005 102.466 346.005C103.744 346.005 104.95 346.212 106.084 346.626C107.218 347.04 108.199 347.67 109.027 348.516L108.46 349.11C107.614 348.3 106.687 347.724 105.679 347.382C104.689 347.022 103.627 346.842 102.493 346.842C101.233 346.842 100.063 347.067 98.9831 347.517C97.9031 347.949 96.9581 348.561 96.1481 349.353C95.3561 350.145 94.7351 351.072 94.2851 352.134C93.8531 353.178 93.6371 354.321 93.6371 355.563C93.6371 356.805 93.8531 357.957 94.2851 359.019C94.7351 360.063 95.3561 360.981 96.1481 361.773C96.9581 362.565 97.9031 363.186 98.9831 363.636C100.063 364.068 101.233 364.284 102.493 364.284C103.627 364.284 104.689 364.113 105.679 363.771C106.687 363.411 107.614 362.817 108.46 361.989L109.027 362.583C108.199 363.429 107.218 364.068 106.084 364.5C104.95 364.914 103.744 365.121 102.466 365.121ZM117.077 365.013V346.626L117.401 346.95H110.165V346.113H124.907V346.95H117.671L117.995 346.626V365.013H117.077ZM136.427 365.121C135.041 365.121 133.754 364.887 132.566 364.419C131.378 363.933 130.343 363.258 129.461 362.394C128.579 361.53 127.895 360.522 127.409 359.37C126.923 358.2 126.68 356.931 126.68 355.563C126.68 354.195 126.923 352.935 127.409 351.783C127.895 350.613 128.579 349.596 129.461 348.732C130.343 347.868 131.378 347.202 132.566 346.734C133.754 346.248 135.041 346.005 136.427 346.005C137.831 346.005 139.127 346.248 140.315 346.734C141.503 347.202 142.529 347.868 143.393 348.732C144.275 349.596 144.959 350.613 145.445 351.783C145.949 352.935 146.201 354.195 146.201 355.563C146.201 356.931 145.949 358.2 145.445 359.37C144.959 360.522 144.275 361.53 143.393 362.394C142.529 363.258 141.503 363.933 140.315 364.419C139.127 364.887 137.831 365.121 136.427 365.121ZM136.427 364.284C137.687 364.284 138.857 364.068 139.937 363.636C141.017 363.204 141.953 362.592 142.745 361.8C143.555 361.008 144.176 360.09 144.608 359.046C145.058 357.984 145.283 356.823 145.283 355.563C145.283 354.303 145.058 353.151 144.608 352.107C144.176 351.045 143.555 350.118 142.745 349.326C141.953 348.534 141.017 347.922 139.937 347.49C138.857 347.058 137.687 346.842 136.427 346.842C135.185 346.842 134.024 347.058 132.944 347.49C131.864 347.922 130.919 348.534 130.109 349.326C129.317 350.118 128.696 351.045 128.246 352.107C127.814 353.151 127.598 354.303 127.598 355.563C127.598 356.823 127.814 357.984 128.246 359.046C128.696 360.09 129.317 361.008 130.109 361.8C130.919 362.592 131.864 363.204 132.944 363.636C134.024 364.068 135.185 364.284 136.427 364.284ZM162.909 356.562C161.739 357.102 160.569 357.516 159.399 357.804C158.229 358.092 157.122 358.236 156.078 358.236C153.99 358.236 152.352 357.732 151.164 356.724C149.994 355.698 149.409 354.285 149.409 352.485V346.113H150.327V352.431C150.327 353.997 150.84 355.221 151.866 356.103C152.892 356.967 154.305 357.399 156.105 357.399C157.149 357.399 158.247 357.255 159.399 356.967C160.551 356.661 161.73 356.229 162.936 355.671L162.909 356.562ZM162.639 365.013V346.113H163.557V365.013H162.639ZM184.851 346.113H185.769V365.013H184.851V346.113ZM171.594 365.013H170.676V346.113H171.594V365.013ZM185.013 355.833H171.432V354.996H185.013V355.833ZM192.903 365.013V346.113H193.821V363.42L207.294 346.113H208.05V365.013H207.159V347.706L193.659 365.013H192.903ZM228.467 365.013L220.556 355.428L221.339 355.023L229.547 365.013H228.467ZM215.21 365.013V346.113H216.128V365.013H215.21ZM215.804 355.833V354.996H221.42V355.833H215.804ZM221.366 355.644L220.556 355.401L227.981 346.113H229.034L221.366 355.644ZM233.896 354.996H244.318V355.833H233.896V354.996ZM234.058 364.176H245.911V365.013H233.14V346.113H245.533V346.95H234.058V364.176Z" fill="#6E39F2"/>
<path d="M509.525 52.268L499.123 41.8644L509.521 31.4627L504.177 26.1125L493.773 36.5142L483.371 26.1125L478.025 31.4627L488.423 41.8644L478.025 52.2661L483.375 57.6125L493.773 47.2109L504.171 57.6125L509.525 52.268Z" fill="#6E39F2"/>
</g>
<defs>
<filter id="filter0_d_150_1314" x="0.125" y="0.9125" width="536.4" height="418.275" filterUnits="userSpaceOnUse" color-interpolation-filters="sRGB">
<feFlood flood-opacity="0" result="BackgroundImageFix"/>
<feColorMatrix in="SourceAlpha" type="matrix" values="0 0 0 0 0 0 0 0 0 0 0 0 0 0 0 0 0 0 127 0" result="hardAlpha"/>
<feOffset dx="5.4" dy="-5.4"/>
<feGaussianBlur stdDeviation="2.25"/>
<feComposite in2="hardAlpha" operator="out"/>
<feColorMatrix type="matrix" values="0 0 0 0 0.431373 0 0 0 0 0.223529 0 0 0 0 0.94902 0 0 0 0.25 0"/>
<feBlend mode="normal" in2="BackgroundImageFix" result="effect1_dropShadow_150_1314"/>
<feBlend mode="normal" in="SourceGraphic" in2="effect1_dropShadow_150_1314" result="shape"/>
</filter>
</defs>
</svg>
