<svg width="912" height="533" viewBox="0 0 912 533" fill="none" xmlns="http://www.w3.org/2000/svg">
<g filter="url(#filter0_d_129_1081)">
<rect x="0.5" y="0.4375" width="900" height="520.875" fill="white"/>
<rect x="3.3125" y="3.25" width="894.375" height="515.25" stroke="#03EAFF" stroke-width="5.625"/>
</g>
<path d="M73.625 64.4612L62.4803 53.3145L73.6209 42.1699L67.8947 36.4375L56.748 47.5822L45.6033 36.4375L39.875 42.1699L51.0156 53.3145L39.875 64.4592L45.6074 70.1875L56.748 59.0428L67.8886 70.1875L73.625 64.4612Z" fill="#03EAFF"/>
<path d="M120.83 132.438V69.4375H165.29L165.2 81.3175H131.9L135.23 77.9875L135.32 132.438H120.83ZM166.987 133.428C165.907 133.428 164.767 133.338 163.567 133.158C162.427 132.978 161.167 132.738 159.787 132.438L160.687 120.107C161.527 120.347 162.397 120.467 163.297 120.467C165.757 120.467 167.677 119.477 169.057 117.497C170.437 115.457 171.427 112.547 172.027 108.767C172.627 104.987 173.017 100.397 173.197 94.9975L174.097 69.4375H222.517V132.438H208.117V77.9875L211.447 81.3175H183.637L186.607 77.8075L186.067 94.4575C185.887 100.637 185.467 106.127 184.807 110.927C184.147 115.727 183.127 119.807 181.747 123.167C180.367 126.527 178.477 129.077 176.077 130.817C173.677 132.558 170.647 133.428 166.987 133.428ZM238.252 132.438V69.4375H252.742V110.477L282.802 69.4375H296.482V132.438H282.082V91.4875L252.022 132.438H238.252ZM345.468 128.477C337.308 128.477 330.378 127.397 324.678 125.237C319.038 123.077 314.748 119.957 311.808 115.877C308.868 111.737 307.398 106.697 307.398 100.757C307.398 94.8175 308.868 89.8075 311.808 85.7275C314.748 81.5875 319.038 78.4375 324.678 76.2775C330.378 74.1175 337.308 73.0375 345.468 73.0375C345.588 73.0375 345.918 73.0375 346.458 73.0375C347.058 73.0375 347.628 73.0375 348.168 73.0375C348.768 73.0375 349.098 73.0375 349.158 73.0375C357.258 73.0375 364.098 74.1175 369.678 76.2775C375.318 78.4375 379.578 81.5875 382.458 85.7275C385.338 89.8675 386.778 94.8775 386.778 100.757C386.778 106.577 385.338 111.587 382.458 115.787C379.638 119.927 375.468 123.077 369.948 125.237C364.488 127.397 357.798 128.477 349.878 128.477C349.698 128.477 349.278 128.477 348.618 128.477C347.958 128.477 347.298 128.477 346.638 128.477C346.038 128.477 345.648 128.477 345.468 128.477ZM346.818 117.227C346.998 117.227 347.238 117.227 347.538 117.227C347.838 117.227 348.048 117.227 348.168 117.227C353.688 117.227 358.248 116.627 361.848 115.427C365.508 114.167 368.238 112.337 370.038 109.938C371.838 107.477 372.738 104.387 372.738 100.667C372.738 96.9475 371.808 93.8875 369.948 91.4875C368.088 89.0875 365.358 87.3175 361.758 86.1775C358.218 84.9775 353.748 84.3775 348.348 84.3775C348.228 84.3775 347.988 84.3775 347.628 84.3775C347.328 84.3775 347.058 84.3775 346.818 84.3775C341.118 84.3775 336.408 84.9475 332.688 86.0875C328.968 87.2275 326.178 89.0275 324.318 91.4875C322.458 93.8875 321.528 96.9775 321.528 100.757C321.528 104.537 322.518 107.657 324.498 110.117C326.478 112.517 329.328 114.317 333.048 115.517C336.828 116.657 341.418 117.227 346.818 117.227ZM340.428 135.228V66.7375H353.838V135.228H340.428ZM428.195 90.1375C435.815 90.1375 441.695 91.8475 445.835 95.2675C449.975 98.6275 452.045 103.697 452.045 110.477C452.045 117.677 449.735 123.137 445.115 126.857C440.555 130.577 434.225 132.438 426.125 132.438H397.685V69.4375H412.175V90.1375H428.195ZM425.315 121.637C429.035 121.637 431.975 120.707 434.135 118.847C436.295 116.987 437.375 114.287 437.375 110.747C437.375 107.267 436.295 104.777 434.135 103.277C432.035 101.717 429.095 100.937 425.315 100.937H412.175V121.637H425.315ZM460.055 132.438V69.4375H474.545V132.438H460.055Z" fill="#6E39F2"/>
<path d="M227.84 216.562L234.14 185.062H248.09C251.24 185.062 253.685 185.647 255.425 186.817C257.165 187.987 258.035 189.712 258.035 191.992C258.035 193.972 257.54 195.652 256.55 197.032C255.59 198.382 254.33 199.402 252.77 200.092C251.21 200.782 249.56 201.127 247.82 201.127L248.855 199.822C251.195 199.822 253.085 200.407 254.525 201.577C255.965 202.747 256.685 204.457 256.685 206.707C256.685 208.867 256.115 210.682 254.975 212.152C253.865 213.622 252.275 214.732 250.205 215.482C248.165 216.202 245.765 216.562 243.005 216.562H227.84ZM233.06 212.917H243.32C246.14 212.917 248.33 212.392 249.89 211.342C251.45 210.292 252.23 208.762 252.23 206.752C252.23 205.162 251.66 204.052 250.52 203.422C249.38 202.762 247.76 202.432 245.66 202.432H234.41L235.13 198.787H245.075C246.725 198.787 248.165 198.562 249.395 198.112C250.655 197.662 251.63 196.987 252.32 196.087C253.01 195.187 253.355 194.062 253.355 192.712C253.355 191.332 252.815 190.327 251.735 189.697C250.655 189.037 249.125 188.707 247.145 188.707H237.875L233.06 212.917ZM279.583 196.042C286.453 196.042 289.888 198.847 289.888 204.457C289.888 206.917 289.288 209.062 288.088 210.892C286.888 212.692 285.178 214.088 282.958 215.078C280.738 216.068 278.128 216.562 275.128 216.562H262.078L268.378 185.062H272.833L270.628 196.042H279.583ZM275.623 213.007C277.603 213.007 279.313 212.692 280.753 212.062C282.193 211.402 283.303 210.472 284.083 209.272C284.893 208.042 285.298 206.587 285.298 204.907C285.298 203.047 284.758 201.697 283.678 200.857C282.598 200.017 280.888 199.597 278.548 199.597H269.908L267.253 213.007H275.623ZM293.803 216.562L300.103 185.062H304.603L298.303 216.562H293.803ZM307.913 216.562L314.213 185.062H337.973L337.163 188.887H317.858L316.103 197.887H325.958C329.168 197.887 331.613 198.577 333.293 199.957C334.973 201.307 335.813 203.317 335.813 205.987C335.813 208.177 335.243 210.067 334.103 211.657C332.963 213.217 331.313 214.432 329.153 215.302C326.993 216.142 324.413 216.562 321.413 216.562H307.913ZM313.088 213.007H321.953C324.833 213.007 327.083 212.422 328.703 211.252C330.353 210.052 331.178 208.387 331.178 206.257C331.178 204.607 330.623 203.392 329.513 202.612C328.403 201.832 326.648 201.442 324.248 201.442H315.383L313.088 213.007ZM348.654 198.652H364.854L364.089 202.477H347.889L348.654 198.652ZM346.224 212.647H364.629L363.864 216.562H340.959L347.259 185.062H369.489L368.724 188.977H350.949L346.224 212.647ZM370.751 216.562L377.051 185.062H388.751C392.441 185.062 395.291 185.872 397.301 187.492C399.311 189.112 400.316 191.377 400.316 194.287C400.316 196.957 399.716 199.252 398.516 201.172C397.346 203.062 395.651 204.517 393.431 205.537C391.211 206.527 388.586 207.022 385.556 207.022H375.206L377.591 204.862L375.251 216.562H370.751ZM377.501 205.357L375.926 203.107H385.646C388.856 203.107 391.346 202.402 393.116 200.992C394.916 199.552 395.816 197.452 395.816 194.692C395.816 192.802 395.171 191.377 393.881 190.417C392.591 189.457 390.746 188.977 388.346 188.977H378.851L381.236 186.682L377.501 205.357ZM402.878 216.562L409.178 185.062H413.633L408.728 209.362L432.218 185.062H436.403L430.103 216.562H425.693L430.598 192.307L407.063 216.562H402.878ZM467.579 216.923C464.399 216.923 461.684 216.367 459.434 215.257C457.214 214.147 455.504 212.603 454.304 210.623C453.134 208.612 452.549 206.287 452.549 203.647C452.549 201.037 452.999 198.592 453.899 196.312C454.799 194.002 456.089 191.977 457.769 190.237C459.479 188.497 461.504 187.147 463.844 186.187C466.214 185.197 468.884 184.702 471.854 184.702C474.464 184.702 476.774 185.122 478.784 185.962C480.794 186.802 482.339 188.017 483.419 189.607L480.179 192.397C479.249 191.197 478.064 190.282 476.624 189.652C475.184 189.022 473.489 188.707 471.539 188.707C469.289 188.707 467.264 189.097 465.464 189.877C463.694 190.627 462.179 191.692 460.919 193.072C459.659 194.422 458.699 195.982 458.039 197.752C457.379 199.522 457.049 201.397 457.049 203.377C457.049 205.267 457.454 206.932 458.264 208.372C459.104 209.782 460.319 210.892 461.909 211.702C463.529 212.512 465.524 212.917 467.894 212.917C469.814 212.917 471.569 212.602 473.159 211.972C474.779 211.342 476.204 210.412 477.434 209.182L480.044 212.152C478.604 213.742 476.804 214.942 474.644 215.752C472.484 216.532 470.129 216.923 467.579 216.923ZM484.92 216.562L491.22 185.062H505.17C508.32 185.062 510.765 185.647 512.505 186.817C514.245 187.987 515.115 189.712 515.115 191.992C515.115 193.972 514.62 195.652 513.63 197.032C512.67 198.382 511.41 199.402 509.85 200.092C508.29 200.782 506.64 201.127 504.9 201.127L505.935 199.822C508.275 199.822 510.165 200.407 511.605 201.577C513.045 202.747 513.765 204.457 513.765 206.707C513.765 208.867 513.195 210.682 512.055 212.152C510.945 213.622 509.355 214.732 507.285 215.482C505.245 216.202 502.845 216.562 500.085 216.562H484.92ZM490.14 212.917H500.4C503.22 212.917 505.41 212.392 506.97 211.342C508.53 210.292 509.31 208.762 509.31 206.752C509.31 205.162 508.74 204.052 507.6 203.422C506.46 202.762 504.84 202.432 502.74 202.432H491.49L492.21 198.787H502.155C503.805 198.787 505.245 198.562 506.475 198.112C507.735 197.662 508.71 196.987 509.4 196.087C510.09 195.187 510.435 194.062 510.435 192.712C510.435 191.332 509.895 190.327 508.815 189.697C507.735 189.037 506.205 188.707 504.225 188.707H494.955L490.14 212.917ZM534.503 216.923C531.383 216.923 528.713 216.367 526.493 215.257C524.273 214.147 522.578 212.603 521.408 210.623C520.268 208.612 519.698 206.287 519.698 203.647C519.698 201.037 520.148 198.592 521.048 196.312C521.948 194.002 523.238 191.977 524.918 190.237C526.598 188.497 528.608 187.147 530.948 186.187C533.288 185.197 535.913 184.702 538.823 184.702C541.973 184.702 544.658 185.257 546.878 186.367C549.098 187.477 550.778 189.037 551.918 191.047C553.088 193.027 553.673 195.337 553.673 197.977C553.673 200.587 553.223 203.047 552.323 205.357C551.423 207.637 550.133 209.647 548.453 211.387C546.773 213.127 544.748 214.492 542.378 215.482C540.038 216.443 537.413 216.923 534.503 216.923ZM534.908 212.917C537.068 212.917 539.033 212.542 540.803 211.792C542.573 211.012 544.073 209.948 545.303 208.597C546.533 207.217 547.478 205.642 548.138 203.872C548.798 202.102 549.128 200.227 549.128 198.247C549.128 196.357 548.723 194.707 547.913 193.297C547.103 191.857 545.903 190.732 544.313 189.922C542.723 189.112 540.773 188.707 538.463 188.707C536.273 188.707 534.293 189.097 532.523 189.877C530.783 190.627 529.283 191.692 528.023 193.072C526.793 194.422 525.848 195.982 525.188 197.752C524.528 199.522 524.198 201.397 524.198 203.377C524.198 205.267 524.603 206.932 525.413 208.372C526.253 209.782 527.453 210.892 529.013 211.702C530.603 212.512 532.568 212.917 534.908 212.917ZM557.654 216.562L563.954 185.062H568.409L563.504 209.362L586.994 185.062H591.179L584.879 216.562H580.469L585.374 192.307L561.839 216.562H557.654ZM577.949 182.902C575.549 182.902 573.749 182.362 572.549 181.282C571.379 180.172 570.944 178.672 571.244 176.782H574.169C574.019 177.892 574.304 178.792 575.024 179.482C575.744 180.172 576.779 180.517 578.129 180.517C579.449 180.517 580.574 180.187 581.504 179.527C582.464 178.867 583.064 177.952 583.304 176.782H586.319C585.929 178.762 585.014 180.277 583.574 181.327C582.134 182.377 580.259 182.902 577.949 182.902ZM596.095 206.617L599.56 185.062H604.69L599.515 206.617H596.095ZM596.23 216.833C595.42 216.833 594.745 216.562 594.205 216.022C593.695 215.482 593.44 214.852 593.44 214.132C593.44 213.232 593.725 212.497 594.295 211.927C594.895 211.357 595.615 211.072 596.455 211.072C597.265 211.072 597.925 211.327 598.435 211.837C598.975 212.347 599.245 212.977 599.245 213.727C599.245 214.297 599.11 214.822 598.84 215.302C598.57 215.782 598.21 216.157 597.76 216.427C597.31 216.698 596.8 216.833 596.23 216.833Z" fill="#6E39F2"/>
<path d="M109.353 282.152C113.793 282.152 117.633 282.752 120.873 283.952C124.173 285.152 126.723 286.892 128.523 289.172C130.383 291.452 131.313 294.212 131.313 297.452C131.313 301.892 129.963 305.432 127.263 308.072C124.623 310.712 121.353 312.512 117.453 313.472V313.742C120.873 314.162 123.753 315.002 126.093 316.262C128.433 317.522 130.203 319.202 131.403 321.302C132.603 323.342 133.203 325.772 133.203 328.592C133.203 329.672 133.293 330.722 133.473 331.742C133.653 332.762 134.013 333.662 134.553 334.442C135.093 335.222 135.843 335.852 136.803 336.332C137.763 336.752 139.023 336.962 140.583 336.962C143.223 336.962 145.113 336.212 146.253 334.712C147.393 333.212 147.963 330.812 147.963 327.512V310.052H161.373V330.572C161.373 334.652 160.503 338.012 158.763 340.652C157.083 343.232 154.683 345.152 151.563 346.412C148.443 347.613 144.783 348.213 140.583 348.213C137.163 348.213 134.133 347.793 131.493 346.952C128.913 346.112 126.723 344.852 124.923 343.172C123.183 341.492 121.863 339.452 120.963 337.052C120.063 334.592 119.613 331.772 119.613 328.592C119.613 327.272 119.313 326.042 118.713 324.902C118.113 323.762 117.153 322.772 115.833 321.932C114.573 321.032 112.863 320.342 110.703 319.862C108.543 319.382 105.933 319.142 102.873 319.142H95.4025V309.602H102.873C106.773 309.602 109.803 309.182 111.963 308.342C114.183 307.502 115.743 306.392 116.643 305.012C117.543 303.632 117.993 302.102 117.993 300.422C117.993 298.142 117.213 296.372 115.653 295.112C114.093 293.792 111.663 293.132 108.363 293.132C105.303 293.132 102.663 293.612 100.443 294.572C98.2225 295.532 96.3325 296.522 94.7725 297.542L87.9325 288.452C89.6125 287.252 91.5025 286.172 93.6025 285.212C95.7625 284.252 98.1325 283.502 100.713 282.962C103.353 282.422 106.233 282.152 109.353 282.152ZM251.399 341.732C247.739 343.892 243.899 345.512 239.879 346.592C235.859 347.613 231.839 348.183 227.819 348.303C223.859 348.483 220.079 348.153 216.479 347.312C212.939 346.532 209.789 345.362 207.029 343.802C204.269 342.182 202.109 340.202 200.549 337.862C198.989 335.462 198.209 332.732 198.209 329.672C198.209 326.432 199.049 323.582 200.729 321.122C202.469 318.662 204.869 316.712 207.929 315.272C211.049 313.832 214.679 313.112 218.819 313.112L219.269 316.442C215.609 316.442 212.399 315.812 209.639 314.552C206.879 313.232 204.689 311.432 203.069 309.152C201.509 306.812 200.729 304.142 200.729 301.142C200.729 297.722 201.749 294.782 203.789 292.322C205.829 289.802 208.559 287.792 211.979 286.292C215.399 284.792 219.239 283.832 223.499 283.412C227.759 282.992 232.139 283.172 236.639 283.952C241.139 284.732 245.459 286.172 249.599 288.272L245.189 299.702C242.669 298.262 240.029 297.182 237.269 296.463C234.509 295.682 231.839 295.262 229.259 295.202C226.679 295.082 224.339 295.292 222.239 295.832C220.199 296.372 218.579 297.242 217.379 298.442C216.179 299.582 215.579 301.022 215.579 302.762C215.579 304.862 216.389 306.512 218.009 307.712C219.629 308.912 221.939 309.512 224.939 309.512H239.159V320.672H223.769C220.529 320.672 217.919 321.272 215.939 322.472C213.959 323.612 212.969 325.352 212.969 327.692C212.969 329.732 213.689 331.442 215.129 332.822C216.629 334.142 218.579 335.132 220.979 335.792C223.379 336.452 226.079 336.752 229.079 336.692C232.079 336.572 235.109 336.092 238.169 335.252C241.229 334.352 244.139 333.092 246.899 331.472L251.399 341.732ZM291.669 347.312L334.689 284.312H345.399L302.379 347.312H291.669ZM297.159 318.332C294.099 318.332 291.399 317.642 289.059 316.262C286.719 314.822 284.859 312.812 283.479 310.232C282.159 307.592 281.499 304.502 281.499 300.962C281.499 297.422 282.159 294.362 283.479 291.782C284.859 289.202 286.719 287.192 289.059 285.752C291.399 284.312 294.099 283.592 297.159 283.592C300.219 283.592 302.919 284.312 305.259 285.752C307.599 287.192 309.429 289.202 310.749 291.782C312.069 294.362 312.729 297.422 312.729 300.962C312.729 304.502 312.069 307.592 310.749 310.232C309.429 312.812 307.599 314.822 305.259 316.262C302.919 317.642 300.219 318.332 297.159 318.332ZM297.159 310.952C299.139 310.952 300.729 310.142 301.929 308.522C303.129 306.842 303.729 304.322 303.729 300.962C303.729 297.602 303.129 295.112 301.929 293.492C300.729 291.812 299.139 290.972 297.159 290.972C295.239 290.972 293.649 291.812 292.389 293.492C291.189 295.112 290.589 297.602 290.589 300.962C290.589 304.262 291.189 306.752 292.389 308.432C293.649 310.112 295.239 310.952 297.159 310.952ZM339.909 348.033C336.909 348.033 334.209 347.343 331.809 345.962C329.469 344.522 327.639 342.512 326.319 339.932C324.999 337.292 324.339 334.202 324.339 330.662C324.339 327.122 324.999 324.062 326.319 321.482C327.639 318.902 329.469 316.892 331.809 315.452C334.209 314.012 336.909 313.292 339.909 313.292C343.029 313.292 345.759 314.012 348.099 315.452C350.439 316.892 352.269 318.902 353.589 321.482C354.909 324.062 355.569 327.122 355.569 330.662C355.569 334.202 354.909 337.292 353.589 339.932C352.269 342.512 350.439 344.522 348.099 345.962C345.759 347.343 343.029 348.033 339.909 348.033ZM339.909 340.652C341.889 340.652 343.479 339.842 344.679 338.222C345.879 336.542 346.479 334.022 346.479 330.662C346.479 327.362 345.879 324.872 344.679 323.192C343.479 321.512 341.889 320.672 339.909 320.672C337.989 320.672 336.399 321.512 335.139 323.192C333.939 324.812 333.339 327.302 333.339 330.662C333.339 334.022 333.939 336.542 335.139 338.222C336.399 339.842 337.989 340.652 339.909 340.652ZM374.199 348.033C371.199 348.033 368.499 347.343 366.099 345.962C363.759 344.522 361.929 342.512 360.609 339.932C359.289 337.352 358.629 334.262 358.629 330.662C358.629 327.062 359.289 324.002 360.609 321.482C361.929 318.902 363.759 316.892 366.099 315.452C368.499 314.012 371.199 313.292 374.199 313.292C377.259 313.292 379.959 314.012 382.299 315.452C384.639 316.892 386.469 318.902 387.789 321.482C389.109 324.062 389.769 327.122 389.769 330.662C389.769 334.202 389.109 337.292 387.789 339.932C386.469 342.512 384.639 344.522 382.299 345.962C379.959 347.343 377.259 348.033 374.199 348.033ZM374.199 340.652C376.179 340.652 377.769 339.842 378.969 338.222C380.169 336.542 380.769 334.022 380.769 330.662C380.769 327.362 380.169 324.872 378.969 323.192C377.769 321.512 376.179 320.672 374.199 320.672C372.279 320.672 370.689 321.512 369.429 323.192C368.229 324.812 367.629 327.302 367.629 330.662C367.629 334.022 368.229 336.542 369.429 338.222C370.689 339.842 372.279 340.652 374.199 340.652ZM444.671 348.033C440.651 348.033 437.051 347.252 433.871 345.692C430.751 344.132 428.321 341.762 426.581 338.582C424.841 335.342 423.971 331.232 423.971 326.252V298.892H438.011V324.183C438.011 328.202 438.851 331.172 440.531 333.092C442.271 334.952 444.701 335.882 447.821 335.882C449.981 335.882 451.901 335.432 453.581 334.532C455.261 333.572 456.581 332.132 457.541 330.212C458.501 328.232 458.981 325.772 458.981 322.832V298.892H473.021V347.312H459.701V333.992L462.131 337.862C460.511 341.222 458.111 343.772 454.931 345.512C451.811 347.192 448.391 348.033 444.671 348.033ZM466.091 368.193C462.191 368.193 459.131 367.263 456.911 365.403C454.751 363.543 453.671 361.113 453.671 358.113C453.671 356.193 454.151 354.363 455.111 352.623C456.131 350.883 457.661 349.233 459.701 347.673C461.741 346.112 464.321 344.762 467.441 343.622L473.111 347.312C470.531 348.453 468.461 349.533 466.901 350.553C465.401 351.633 464.291 352.683 463.571 353.703C462.911 354.723 462.581 355.803 462.581 356.943C462.581 358.203 463.031 359.193 463.931 359.913C464.891 360.693 466.151 361.083 467.711 361.083C468.731 361.083 469.721 360.933 470.681 360.633C471.641 360.393 472.481 360.093 473.201 359.733L475.181 366.123C474.101 366.723 472.751 367.203 471.131 367.563C469.511 367.983 467.831 368.193 466.091 368.193ZM564.796 347.312H549.316L532.486 320.222L526.726 324.362V347.312H513.136V283.052H526.726V312.482C527.626 311.222 528.526 309.962 529.426 308.702C530.326 307.442 531.226 306.182 532.126 304.922L549.496 283.052H564.616L542.206 311.492L564.796 347.312ZM592.99 325.802V318.242H641.5V325.802H592.99ZM592.99 313.382V305.822H641.5V313.382H592.99ZM635.83 348.393C630.91 348.393 626.35 347.612 622.15 346.052C618.01 344.432 614.41 342.152 611.35 339.212C608.29 336.272 605.92 332.822 604.24 328.862C602.56 324.902 601.72 320.552 601.72 315.812C601.72 311.072 602.56 306.722 604.24 302.762C605.92 298.802 608.29 295.352 611.35 292.412C614.41 289.472 618.01 287.222 622.15 285.662C626.35 284.042 630.91 283.232 635.83 283.232C641.29 283.232 646.24 284.192 650.68 286.112C655.12 287.972 658.81 290.732 661.75 294.393L652.48 303.032C650.32 300.572 647.92 298.742 645.28 297.542C642.64 296.282 639.73 295.652 636.55 295.652C633.61 295.652 630.91 296.132 628.45 297.092C625.99 298.052 623.86 299.432 622.06 301.232C620.26 303.032 618.85 305.162 617.83 307.622C616.87 310.082 616.39 312.812 616.39 315.812C616.39 318.812 616.87 321.542 617.83 324.002C618.85 326.462 620.26 328.592 622.06 330.392C623.86 332.192 625.99 333.572 628.45 334.532C630.91 335.492 633.61 335.972 636.55 335.972C639.73 335.972 642.64 335.372 645.28 334.172C647.92 332.912 650.32 331.022 652.48 328.502L661.75 337.142C658.81 340.802 655.12 343.592 650.68 345.512C646.24 347.432 641.29 348.393 635.83 348.393ZM727.226 348.393C722.366 348.393 717.836 347.612 713.636 346.052C709.496 344.432 705.896 342.152 702.836 339.212C699.776 336.272 697.376 332.822 695.636 328.862C693.956 324.902 693.116 320.552 693.116 315.812C693.116 311.072 693.956 306.722 695.636 302.762C697.376 298.802 699.776 295.352 702.836 292.412C705.956 289.472 709.586 287.222 713.726 285.662C717.866 284.042 722.396 283.232 727.316 283.232C732.776 283.232 737.696 284.192 742.076 286.112C746.516 287.972 750.236 290.732 753.236 294.393L743.876 303.032C741.716 300.572 739.316 298.742 736.676 297.542C734.036 296.282 731.156 295.652 728.036 295.652C725.096 295.652 722.396 296.132 719.936 297.092C717.476 298.052 715.346 299.432 713.546 301.232C711.746 303.032 710.336 305.162 709.316 307.622C708.356 310.082 707.876 312.812 707.876 315.812C707.876 318.812 708.356 321.542 709.316 324.002C710.336 326.462 711.746 328.592 713.546 330.392C715.346 332.192 717.476 333.572 719.936 334.532C722.396 335.492 725.096 335.972 728.036 335.972C731.156 335.972 734.036 335.372 736.676 334.172C739.316 332.912 741.716 331.022 743.876 328.502L753.236 337.142C750.236 340.802 746.516 343.592 742.076 345.512C737.696 347.432 732.746 348.393 727.226 348.393ZM708.776 279.182L720.656 266.222H733.076L744.956 279.182H734.696L722.276 268.382H731.456L719.036 279.182H708.776ZM817.281 347.312V337.862L816.381 335.792V318.872C816.381 315.872 815.451 313.532 813.591 311.852C811.791 310.172 809.001 309.332 805.221 309.332C802.641 309.332 800.091 309.752 797.571 310.592C795.111 311.372 793.011 312.452 791.271 313.832L786.231 304.022C788.871 302.162 792.051 300.722 795.771 299.702C799.491 298.682 803.271 298.172 807.111 298.172C814.491 298.172 820.221 299.912 824.301 303.392C828.381 306.872 830.421 312.302 830.421 319.682V347.312H817.281ZM802.521 348.033C798.741 348.033 795.501 347.403 792.801 346.142C790.101 344.822 788.031 343.052 786.591 340.832C785.151 338.612 784.431 336.122 784.431 333.362C784.431 330.482 785.121 327.962 786.501 325.802C787.941 323.642 790.191 321.962 793.251 320.762C796.311 319.502 800.301 318.872 805.221 318.872H818.091V327.062H806.751C803.451 327.062 801.171 327.602 799.911 328.682C798.711 329.762 798.111 331.112 798.111 332.732C798.111 334.533 798.801 335.972 800.181 337.052C801.621 338.072 803.571 338.582 806.031 338.582C808.371 338.582 810.471 338.042 812.331 336.962C814.191 335.822 815.541 334.172 816.381 332.012L818.541 338.492C817.521 341.612 815.661 343.982 812.961 345.602C810.261 347.222 806.781 348.033 802.521 348.033ZM790.461 292.682L802.341 279.722H814.761L826.641 292.682H816.381L803.961 281.882H813.141L800.721 292.682H790.461ZM195.717 458.033C190.197 458.033 185.337 456.952 181.137 454.792C176.997 452.632 173.787 449.692 171.507 445.972C169.227 442.192 168.087 437.902 168.087 433.102C168.087 428.242 169.197 423.952 171.417 420.232C173.697 416.452 176.787 413.512 180.687 411.412C184.587 409.252 188.997 408.172 193.917 408.172C198.657 408.172 202.917 409.192 206.697 411.232C210.537 413.212 213.567 416.092 215.787 419.872C218.007 423.592 219.117 428.062 219.117 433.282C219.117 433.822 219.087 434.452 219.027 435.172C218.967 435.832 218.907 436.462 218.847 437.062H179.517V428.872H211.467L206.067 431.302C206.067 428.782 205.557 426.592 204.537 424.732C203.517 422.872 202.107 421.432 200.307 420.412C198.507 419.332 196.407 418.792 194.007 418.792C191.607 418.792 189.477 419.332 187.617 420.412C185.817 421.432 184.407 422.902 183.387 424.822C182.367 426.682 181.857 428.902 181.857 431.482V433.642C181.857 436.282 182.427 438.622 183.567 440.662C184.767 442.642 186.417 444.172 188.517 445.252C190.677 446.272 193.197 446.782 196.077 446.782C198.657 446.782 200.907 446.392 202.827 445.612C204.807 444.832 206.607 443.662 208.227 442.102L215.697 450.202C213.477 452.722 210.687 454.672 207.327 456.052C203.967 457.373 200.097 458.033 195.717 458.033ZM202.737 402.232C200.997 402.232 199.527 401.662 198.327 400.522C197.127 399.382 196.527 397.882 196.527 396.022C196.527 394.162 197.127 392.662 198.327 391.522C199.527 390.382 200.997 389.812 202.737 389.812C204.477 389.812 205.947 390.382 207.147 391.522C208.407 392.662 209.037 394.162 209.037 396.022C209.037 397.882 208.407 399.382 207.147 400.522C205.947 401.662 204.477 402.232 202.737 402.232ZM184.557 402.232C182.817 402.232 181.317 401.662 180.057 400.522C178.857 399.382 178.257 397.882 178.257 396.022C178.257 394.162 178.857 392.662 180.057 391.522C181.317 390.382 182.817 389.812 184.557 389.812C186.297 389.812 187.767 390.382 188.967 391.522C190.167 392.662 190.767 394.162 190.767 396.022C190.767 397.882 190.167 399.382 188.967 400.522C187.767 401.662 186.297 402.232 184.557 402.232ZM253.953 474.773V408.892H267.993V434.183C267.993 438.202 268.863 441.172 270.603 443.092C272.343 444.952 274.743 445.882 277.803 445.882C280.023 445.882 281.973 445.432 283.653 444.532C285.333 443.572 286.653 442.132 287.613 440.212C288.573 438.232 289.053 435.772 289.053 432.832V408.892H303.093V457.312H290.403V444.172L292.473 446.512C291.753 449.332 290.583 451.582 288.963 453.262C287.403 454.942 285.633 456.172 283.653 456.952C281.673 457.673 279.693 458.033 277.713 458.033C274.893 458.033 272.403 457.462 270.243 456.322C268.083 455.182 266.343 453.562 265.023 451.462L267.993 447.052V474.773H253.953ZM355.62 466.313V424.912C351.96 424.852 348.66 424.132 345.72 422.752C342.84 421.312 340.56 419.302 338.88 416.722C337.2 414.142 336.36 411.142 336.36 407.723C336.36 404.182 337.26 401.122 339.06 398.542C340.86 395.962 343.38 393.982 346.62 392.602C349.86 391.222 353.64 390.532 357.96 390.532H389.37V466.313H377.94V400.702H367.05V466.313H355.62ZM451.807 458.033C446.647 458.033 442.057 456.952 438.037 454.792C434.077 452.632 430.927 449.692 428.587 445.972C426.307 442.192 425.167 437.902 425.167 433.102C425.167 428.242 426.307 423.952 428.587 420.232C430.927 416.452 434.077 413.512 438.037 411.412C442.057 409.252 446.647 408.172 451.807 408.172C456.907 408.172 461.467 409.252 465.487 411.412C469.507 413.512 472.657 416.422 474.937 420.142C477.217 423.862 478.357 428.182 478.357 433.102C478.357 437.902 477.217 442.192 474.937 445.972C472.657 449.692 469.507 452.632 465.487 454.792C461.467 456.952 456.907 458.033 451.807 458.033ZM451.807 446.512C454.147 446.512 456.247 445.972 458.107 444.892C459.967 443.812 461.437 442.282 462.517 440.302C463.597 438.262 464.137 435.862 464.137 433.102C464.137 430.282 463.597 427.882 462.517 425.902C461.437 423.922 459.967 422.392 458.107 421.312C456.247 420.232 454.147 419.692 451.807 419.692C449.467 419.692 447.367 420.232 445.507 421.312C443.647 422.392 442.147 423.922 441.007 425.902C439.927 427.882 439.387 430.282 439.387 433.102C439.387 435.862 439.927 438.262 441.007 440.302C442.147 442.282 443.647 443.812 445.507 444.892C447.367 445.972 449.467 446.512 451.807 446.512ZM428.317 463.703L467.917 402.952H474.937L435.247 463.703H428.317ZM542.66 408.172C546.5 408.172 549.92 408.952 552.92 410.512C555.98 412.012 558.38 414.352 560.12 417.532C561.86 420.652 562.73 424.672 562.73 429.592V457.312H548.69V431.752C548.69 427.852 547.82 424.972 546.08 423.112C544.4 421.252 542 420.322 538.88 420.322C536.66 420.322 534.65 420.802 532.85 421.762C531.11 422.662 529.73 424.072 528.71 425.992C527.75 427.912 527.27 430.372 527.27 433.372V457.312H513.23V408.892H526.64V422.302L524.12 418.252C525.86 415.012 528.35 412.522 531.59 410.782C534.83 409.042 538.52 408.172 542.66 408.172ZM544.82 402.952C543.26 402.952 541.88 402.682 540.68 402.142C539.48 401.542 538.4 400.882 537.44 400.162C536.48 399.382 535.58 398.722 534.74 398.182C533.9 397.582 533.06 397.282 532.22 397.282C531.02 397.282 530.03 397.732 529.25 398.632C528.47 399.472 528.02 400.702 527.9 402.322H520.79C520.91 398.302 521.9 395.122 523.76 392.782C525.62 390.382 528.14 389.182 531.32 389.182C532.88 389.182 534.26 389.482 535.46 390.082C536.66 390.622 537.74 391.282 538.7 392.062C539.72 392.842 540.65 393.532 541.49 394.132C542.33 394.672 543.14 394.942 543.92 394.942C545.18 394.942 546.2 394.522 546.98 393.682C547.76 392.782 548.18 391.582 548.24 390.082H555.35C555.29 393.922 554.3 397.042 552.38 399.442C550.52 401.782 548 402.952 544.82 402.952ZM631.275 458.033C629.475 458.033 627.585 457.883 625.605 457.583C623.625 457.342 621.975 457.012 620.655 456.592L622.275 445.433C623.415 445.792 624.555 446.062 625.695 446.242C626.895 446.422 628.275 446.512 629.835 446.512C631.875 446.512 633.615 446.212 635.055 445.612C636.555 444.952 637.695 444.022 638.475 442.822C639.315 441.562 639.735 440.062 639.735 438.322C639.735 435.682 638.745 433.672 636.765 432.292C634.845 430.852 632.205 430.132 628.845 430.132H623.985V419.062C627.345 418.942 630.015 418.042 631.995 416.362C633.975 414.682 634.965 412.432 634.965 409.612C634.965 407.092 634.125 405.082 632.445 403.582C630.765 402.022 628.455 401.242 625.515 401.242C622.275 401.242 619.695 402.172 617.775 404.032C615.915 405.892 614.985 408.592 614.985 412.132V457.312H600.945V413.842C600.945 408.502 602.025 404.062 604.185 400.522C606.405 396.982 609.375 394.312 613.095 392.512C616.815 390.712 620.955 389.812 625.515 389.812C630.315 389.812 634.425 390.652 637.845 392.332C641.265 394.012 643.875 396.262 645.675 399.082C647.535 401.902 648.465 405.082 648.465 408.622C648.465 411.382 647.865 413.872 646.665 416.092C645.525 418.312 643.995 420.202 642.075 421.762C640.155 423.262 638.025 424.432 635.685 425.272C633.345 426.052 630.975 426.442 628.575 426.442L631.995 420.592C636.375 420.592 640.185 421.312 643.425 422.752C646.725 424.132 649.305 426.172 651.165 428.872C653.025 431.512 653.955 434.782 653.955 438.682C653.955 442.762 652.995 446.242 651.075 449.122C649.155 452.002 646.485 454.222 643.065 455.782C639.705 457.282 635.775 458.033 631.275 458.033ZM720.425 458.393C715.445 458.393 710.825 457.582 706.565 455.962C702.365 454.342 698.705 452.062 695.585 449.122C692.525 446.182 690.125 442.732 688.385 438.772C686.705 434.812 685.865 430.492 685.865 425.812C685.865 421.132 686.705 416.812 688.385 412.852C690.125 408.892 692.555 405.442 695.675 402.502C698.795 399.562 702.455 397.282 706.655 395.662C710.855 394.042 715.415 393.232 720.335 393.232C725.315 393.232 729.875 394.042 734.015 395.662C738.215 397.282 741.845 399.562 744.905 402.502C748.025 405.442 750.455 408.892 752.195 412.852C753.935 416.752 754.805 421.072 754.805 425.812C754.805 430.492 753.935 434.842 752.195 438.862C750.455 442.822 748.025 446.272 744.905 449.212C741.845 452.092 738.215 454.342 734.015 455.962C729.875 457.582 725.345 458.393 720.425 458.393ZM720.335 445.972C723.155 445.972 725.735 445.492 728.075 444.532C730.475 443.572 732.575 442.192 734.375 440.392C736.175 438.592 737.555 436.462 738.515 434.002C739.535 431.542 740.045 428.812 740.045 425.812C740.045 422.812 739.535 420.082 738.515 417.622C737.555 415.162 736.175 413.032 734.375 411.232C732.635 409.432 730.565 408.052 728.165 407.092C725.765 406.132 723.155 405.652 720.335 405.652C717.515 405.652 714.905 406.132 712.505 407.092C710.165 408.052 708.095 409.432 706.295 411.232C704.495 413.032 703.085 415.162 702.065 417.622C701.105 420.082 700.625 422.812 700.625 425.812C700.625 428.752 701.105 431.482 702.065 434.002C703.085 436.462 704.465 438.592 706.205 440.392C708.005 442.192 710.105 443.572 712.505 444.532C714.905 445.492 717.515 445.972 720.335 445.972ZM727.085 389.452C725.525 389.452 724.145 389.182 722.945 388.642C721.745 388.042 720.665 387.382 719.705 386.662C718.745 385.882 717.845 385.222 717.005 384.682C716.165 384.082 715.325 383.782 714.485 383.782C713.285 383.782 712.295 384.232 711.515 385.132C710.735 385.972 710.285 387.202 710.165 388.822H703.055C703.175 384.802 704.165 381.622 706.025 379.282C707.885 376.882 710.405 375.682 713.585 375.682C715.145 375.682 716.525 375.982 717.725 376.582C718.925 377.122 720.005 377.782 720.965 378.562C721.985 379.342 722.915 380.032 723.755 380.632C724.595 381.172 725.405 381.442 726.185 381.442C727.445 381.442 728.465 381.022 729.245 380.182C730.025 379.282 730.445 378.082 730.505 376.582H737.615C737.555 380.422 736.565 383.542 734.645 385.942C732.785 388.282 730.265 389.452 727.085 389.452Z" fill="#03EAFF"/>
<defs>
<filter id="filter0_d_129_1081" x="0.5" y="0.4375" width="911.25" height="532.125" filterUnits="userSpaceOnUse" color-interpolation-filters="sRGB">
<feFlood flood-opacity="0" result="BackgroundImageFix"/>
<feColorMatrix in="SourceAlpha" type="matrix" values="0 0 0 0 0 0 0 0 0 0 0 0 0 0 0 0 0 0 127 0" result="hardAlpha"/>
<feOffset dx="5.625" dy="5.625"/>
<feGaussianBlur stdDeviation="2.8125"/>
<feComposite in2="hardAlpha" operator="out"/>
<feColorMatrix type="matrix" values="0 0 0 0 0.0117647 0 0 0 0 0.917647 0 0 0 0 1 0 0 0 0.25 0"/>
<feBlend mode="normal" in2="BackgroundImageFix" result="effect1_dropShadow_129_1081"/>
<feBlend mode="normal" in="SourceGraphic" in2="effect1_dropShadow_129_1081" result="shape"/>
</filter>
</defs>
</svg>
