<svg width="253" height="302" viewBox="0 0 253 302" fill="none" xmlns="http://www.w3.org/2000/svg">
<path d="M133.447 192.994C122.947 192.994 113.234 191.287 104.309 187.875C95.5156 184.331 87.8375 179.409 81.275 173.109C74.8438 166.809 69.7906 159.394 66.1156 150.862C62.5719 142.331 60.8 133.012 60.8 122.906C60.8 112.8 62.5719 103.481 66.1156 94.95C69.7906 86.4187 74.9094 79.0031 81.4719 72.7031C88.0344 66.4031 95.7125 61.5469 104.506 58.1344C113.431 54.5906 123.144 52.8187 133.644 52.8187C144.144 52.8187 153.725 54.4594 162.388 57.7406C171.181 61.0219 178.663 66.0094 184.831 72.7031L175.775 81.9562C170 76.1812 163.634 72.0469 156.678 69.5531C149.722 67.0594 142.241 65.8125 134.234 65.8125C125.703 65.8125 117.828 67.2562 110.609 70.1437C103.522 72.9 97.2875 76.9031 91.9063 82.1531C86.6563 87.2719 82.5219 93.3094 79.5031 100.266C76.6156 107.091 75.1719 114.637 75.1719 122.906C75.1719 131.044 76.6156 138.591 79.5031 145.547C82.5219 152.503 86.6563 158.606 91.9063 163.856C97.2875 168.975 103.522 172.978 110.609 175.866C117.828 178.622 125.638 180 134.038 180C141.913 180 149.328 178.819 156.284 176.456C163.372 174.094 169.869 170.091 175.775 164.447L184.044 175.472C177.481 181.247 169.803 185.644 161.009 188.662C152.216 191.55 143.028 192.994 133.447 192.994ZM170.066 173.7V122.906H184.044V175.472L170.066 173.7Z" fill="black"/>
<path d="M65.1875 212.875H188.938" stroke="#03EAFF" stroke-width="6"/>
<path d="M39.875 190.938L39.875 50.3125" stroke="#03EAFF" stroke-width="6"/>
<path d="M3.81875 260.688V241H11.1875C12.8563 241 14.2906 241.272 15.4906 241.816C16.6906 242.341 17.6094 243.109 18.2469 244.122C18.9031 245.116 19.2313 246.325 19.2313 247.75C19.2313 249.137 18.9031 250.337 18.2469 251.35C17.6094 252.344 16.6906 253.112 15.4906 253.656C14.2906 254.2 12.8563 254.472 11.1875 254.472H4.97188L5.9 253.487V260.688H3.81875ZM5.9 253.656L4.97188 252.644H11.1313C13.1 252.644 14.5906 252.222 15.6031 251.378C16.6344 250.516 17.15 249.306 17.15 247.75C17.15 246.175 16.6344 244.956 15.6031 244.094C14.5906 243.231 13.1 242.8 11.1313 242.8H4.97188L5.9 241.816V253.656ZM19.5986 260.688L28.5986 241H30.6518L39.6518 260.688H37.458L29.1893 242.209H30.033L21.7643 260.688H19.5986ZM23.1424 255.428L23.7611 253.741H35.208L35.8268 255.428H23.1424ZM51.7561 260.856C50.2748 260.856 48.9061 260.612 47.6498 260.125C46.3936 259.619 45.3061 258.916 44.3873 258.016C43.4686 257.116 42.7467 256.056 42.2217 254.837C41.7154 253.619 41.4623 252.287 41.4623 250.844C41.4623 249.4 41.7154 248.069 42.2217 246.85C42.7467 245.631 43.4686 244.572 44.3873 243.672C45.3248 242.772 46.4217 242.078 47.6779 241.591C48.9342 241.084 50.3029 240.831 51.7842 240.831C53.2092 240.831 54.5498 241.075 55.8061 241.562C57.0623 242.031 58.1217 242.744 58.9842 243.7L57.6623 245.022C56.8561 244.197 55.9654 243.606 54.9904 243.25C54.0154 242.875 52.9654 242.687 51.8404 242.687C50.6592 242.687 49.5623 242.894 48.5498 243.306C47.5373 243.7 46.6561 244.272 45.9061 245.022C45.1561 245.753 44.5654 246.616 44.1342 247.609C43.7217 248.584 43.5154 249.662 43.5154 250.844C43.5154 252.025 43.7217 253.112 44.1342 254.106C44.5654 255.081 45.1561 255.944 45.9061 256.694C46.6561 257.425 47.5373 257.997 48.5498 258.409C49.5623 258.803 50.6592 259 51.8404 259C52.9654 259 54.0154 258.812 54.9904 258.437C55.9654 258.062 56.8561 257.462 57.6623 256.637L58.9842 257.959C58.1217 258.916 57.0623 259.637 55.8061 260.125C54.5498 260.612 53.1998 260.856 51.7561 260.856ZM74.8416 258.887L74.3354 259.45V241H76.3885V259.45L75.826 258.887H85.9229L85.3604 259.45V241H87.4135V260.688H63.2823V241H65.3354V259.45L64.801 258.887H74.8416ZM94.044 260.688V241H96.0971V257.312L108.697 241H110.581V260.688H108.528V244.403L95.9283 260.688H94.044ZM117.225 260.688V241H124.594C126.263 241 127.697 241.272 128.897 241.816C130.097 242.341 131.016 243.109 131.653 244.122C132.309 245.116 132.638 246.325 132.638 247.75C132.638 249.137 132.309 250.337 131.653 251.35C131.016 252.344 130.097 253.112 128.897 253.656C127.697 254.2 126.263 254.472 124.594 254.472H118.378L119.306 253.487V260.688H117.225ZM119.306 253.656L118.378 252.644H124.538C126.506 252.644 127.997 252.222 129.009 251.378C130.041 250.516 130.556 249.306 130.556 247.75C130.556 246.175 130.041 244.956 129.009 244.094C127.997 243.231 126.506 242.8 124.538 242.8H118.378L119.306 241.816V253.656ZM138.747 249.803H149.153V251.575H138.747V249.803ZM138.972 258.887H150.813V260.688H136.891V241H150.391V242.8H138.972V258.887ZM169.83 241H171.883V260.688H169.83V241ZM157.511 260.688H155.43V241H157.511V260.688ZM170.027 251.603H157.286V249.775H170.027V251.603ZM192.929 241H194.982V260.688H192.929V241ZM180.61 260.688H178.529V241H180.61V260.688ZM193.126 251.603H180.385V249.775H193.126V251.603ZM209.868 248.031C212.193 248.031 213.965 248.556 215.184 249.606C216.421 250.637 217.04 252.175 217.04 254.219C217.04 256.337 216.384 257.95 215.071 259.056C213.759 260.144 211.884 260.688 209.446 260.688H201.628V241H203.681V248.031H209.868ZM209.39 259.028C211.209 259.028 212.587 258.625 213.524 257.819C214.481 257.012 214.959 255.831 214.959 254.275C214.959 252.719 214.49 251.575 213.553 250.844C212.615 250.094 211.228 249.719 209.39 249.719H203.681V259.028H209.39ZM220.443 260.688V241H222.496V260.688H220.443ZM230.977 249.803H241.383V251.575H230.977V249.803ZM231.202 258.887H243.043V260.688H229.121V241H242.621V242.8H231.202V258.887ZM3.81875 294.688V275H20.3844V294.688H18.3313V276.237L18.8656 276.8H5.3375L5.87188 276.237V294.688H3.81875ZM27.0274 294.688V275H34.3961C36.0649 275 37.4992 275.272 38.6992 275.816C39.8992 276.341 40.818 277.109 41.4555 278.122C42.1117 279.116 42.4399 280.325 42.4399 281.75C42.4399 283.137 42.1117 284.337 41.4555 285.35C40.818 286.344 39.8992 287.112 38.6992 287.656C37.4992 288.2 36.0649 288.472 34.3961 288.472H28.1805L29.1086 287.487V294.688H27.0274ZM29.1086 287.656L28.1805 286.644H34.3399C36.3086 286.644 37.7992 286.222 38.8117 285.378C39.843 284.516 40.3586 283.306 40.3586 281.75C40.3586 280.175 39.843 278.956 38.8117 278.094C37.7992 277.231 36.3086 276.8 34.3399 276.8H28.1805L29.1086 275.816V287.656ZM55.6019 294.856C54.1207 294.856 52.7426 294.612 51.4676 294.125C50.2113 293.619 49.1144 292.916 48.1769 292.016C47.2582 291.097 46.5363 290.037 46.0113 288.837C45.5051 287.619 45.2519 286.287 45.2519 284.844C45.2519 283.4 45.5051 282.078 46.0113 280.878C46.5363 279.659 47.2582 278.6 48.1769 277.7C49.1144 276.781 50.2113 276.078 51.4676 275.591C52.7238 275.084 54.1019 274.831 55.6019 274.831C57.0832 274.831 58.4519 275.084 59.7082 275.591C60.9644 276.078 62.0519 276.772 62.9707 277.672C63.9082 278.572 64.6301 279.631 65.1363 280.85C65.6613 282.069 65.9238 283.4 65.9238 284.844C65.9238 286.287 65.6613 287.619 65.1363 288.837C64.6301 290.056 63.9082 291.116 62.9707 292.016C62.0519 292.916 60.9644 293.619 59.7082 294.125C58.4519 294.612 57.0832 294.856 55.6019 294.856ZM55.6019 293C56.7832 293 57.8707 292.803 58.8644 292.409C59.8769 291.997 60.7488 291.425 61.4801 290.694C62.2301 289.944 62.8113 289.081 63.2238 288.106C63.6363 287.112 63.8426 286.025 63.8426 284.844C63.8426 283.662 63.6363 282.584 63.2238 281.609C62.8113 280.616 62.2301 279.753 61.4801 279.022C60.7488 278.272 59.8769 277.7 58.8644 277.306C57.8707 276.894 56.7832 276.687 55.6019 276.687C54.4207 276.687 53.3238 276.894 52.3113 277.306C51.2988 277.7 50.4176 278.272 49.6676 279.022C48.9363 279.753 48.3551 280.616 47.9238 281.609C47.5113 282.584 47.3051 283.662 47.3051 284.844C47.3051 286.006 47.5113 287.084 47.9238 288.078C48.3551 289.072 48.9363 289.944 49.6676 290.694C50.4176 291.425 51.2988 291.997 52.3113 292.409C53.3238 292.803 54.4207 293 55.6019 293ZM70.8903 294.688V275H87.4559V294.688H85.4028V276.237L85.9372 276.8H72.409L72.9434 276.237V294.688H70.8903ZM102.733 294.856C101.252 294.856 99.8739 294.612 98.5989 294.125C97.3427 293.619 96.2458 292.916 95.3083 292.016C94.3895 291.097 93.6677 290.037 93.1427 288.837C92.6364 287.619 92.3833 286.287 92.3833 284.844C92.3833 283.4 92.6364 282.078 93.1427 280.878C93.6677 279.659 94.3895 278.6 95.3083 277.7C96.2458 276.781 97.3427 276.078 98.5989 275.591C99.8552 275.084 101.233 274.831 102.733 274.831C104.215 274.831 105.583 275.084 106.84 275.591C108.096 276.078 109.183 276.772 110.102 277.672C111.04 278.572 111.761 279.631 112.268 280.85C112.793 282.069 113.055 283.4 113.055 284.844C113.055 286.287 112.793 287.619 112.268 288.837C111.761 290.056 111.04 291.116 110.102 292.016C109.183 292.916 108.096 293.619 106.84 294.125C105.583 294.612 104.215 294.856 102.733 294.856ZM102.733 293C103.915 293 105.002 292.803 105.996 292.409C107.008 291.997 107.88 291.425 108.611 290.694C109.361 289.944 109.943 289.081 110.355 288.106C110.768 287.112 110.974 286.025 110.974 284.844C110.974 283.662 110.768 282.584 110.355 281.609C109.943 280.616 109.361 279.753 108.611 279.022C107.88 278.272 107.008 277.7 105.996 277.306C105.002 276.894 103.915 276.687 102.733 276.687C101.552 276.687 100.455 276.894 99.4427 277.306C98.4302 277.7 97.5489 278.272 96.7989 279.022C96.0677 279.753 95.4864 280.616 95.0552 281.609C94.6427 282.584 94.4364 283.662 94.4364 284.844C94.4364 286.006 94.6427 287.084 95.0552 288.078C95.4864 289.072 96.0677 289.944 96.7989 290.694C97.5489 291.425 98.4302 291.997 99.4427 292.409C100.455 292.803 101.552 293 102.733 293ZM118.022 294.688V275H125.39C127.059 275 128.494 275.272 129.694 275.816C130.894 276.341 131.812 277.109 132.45 278.122C133.106 279.116 133.434 280.325 133.434 281.75C133.434 283.137 133.106 284.337 132.45 285.35C131.812 286.344 130.894 287.112 129.694 287.656C128.494 288.2 127.059 288.472 125.39 288.472H119.175L120.103 287.487V294.688H118.022ZM120.103 287.656L119.175 286.644H125.334C127.303 286.644 128.794 286.222 129.806 285.378C130.837 284.516 131.353 283.306 131.353 281.75C131.353 280.175 130.837 278.956 129.806 278.094C128.794 277.231 127.303 276.8 125.334 276.8H119.175L120.103 275.816V287.656ZM137.687 294.688V275H139.74V292.887H151.637V275H153.69V294.688H137.687ZM154.872 299.3V294.125L155.406 294.688H151.637V292.887H156.812V299.3H154.872ZM160.951 294.688V275H163.004V291.312L175.604 275H177.488V294.688H175.435V278.403L162.835 294.688H160.951ZM184.132 294.688V275H186.185V291.312L198.785 275H200.669V294.688H198.616V278.403L186.016 294.688H184.132Z" fill="black"/>
</svg>
