<svg width="234" height="93" viewBox="0 0 234 93" fill="none" xmlns="http://www.w3.org/2000/svg">
<g id="Asset 1 1" clip-path="url(#clip0_150_1372)">
<g id="Layer 1">
<g id="Group">
<path id="Vector" d="M12.13 26.0445H7.46686V45.8894H0.625V0.736084H7.46686V18.8208H12.13V0.736084H18.9719V45.8864H12.13V26.0415V26.0445Z" fill="white"/>
<path id="Vector_2" d="M30.6567 46.3729H29.3231C23.8747 46.3729 20.9678 43.3993 20.9678 37.8156V28.7748H27.7497V36.6652C27.7497 38.7287 28.415 39.822 29.9914 39.822C31.5677 39.822 32.23 38.7287 32.23 35.9384V34.9081C32.23 31.6913 31.9273 30.5379 29.4459 27.321L25.0855 21.7373C22.1785 17.9738 21.3304 15.0602 21.3304 10.5698V9.11309C21.3304 3.10586 24.3572 0.3125 29.7456 0.3125H31.0193C36.6504 0.3125 38.8291 2.79949 38.8291 8.13992V15.5438H32.23V9.05001C32.23 7.53319 31.9273 6.3798 30.294 6.3798C28.6607 6.3798 28.2951 7.41004 28.2951 9.5366V10.3866C28.2951 12.9367 28.7806 14.3304 31.0792 17.3039L35.4397 22.9477C38.5265 26.9516 39.4944 29.2583 39.4944 34.3555V35.8122C39.4944 42.4262 36.6504 46.3699 30.6537 46.3699L30.6567 46.3729Z" fill="white"/>
<path id="Vector_3" d="M56.9964 0.736084V7.28997H48.2755V19.1242H55.1173V25.9815H48.2755V39.0292H57.359V45.8864H41.4336V0.736084H56.9934H56.9964Z" fill="white"/>
<path id="Vector_4" d="M75.8286 37.3922H70.8628L69.9548 45.8894H63.8381L69.3494 0.736084H77.4619L83.3358 45.8864H76.7367L75.8286 37.3892V37.3922ZM75.1004 30.6551L73.2843 13.967L71.5281 30.6551H75.1004Z" fill="white"/>
<path id="Vector_5" d="M91.2684 45.8864H84.4265V0.736084H95.506C100.046 0.736084 102.348 2.67942 102.348 7.71348V15.7241C102.348 19.4876 100.592 20.9444 99.3809 21.4881C100.894 22.1549 102.348 23.3683 102.348 26.405V42.243C102.348 44.0632 102.71 44.9132 103.013 45.58V45.8834H96.2312C95.9285 45.3968 95.5659 44.6099 95.5659 42.1829V28.5886C95.5659 26.5852 95.2033 25.7352 93.0245 25.7352H91.2684V45.8834V45.8864ZM91.2684 19.3044H93.0845C94.9635 19.3044 95.5659 18.091 95.5659 16.0876V9.77696C95.5659 7.83362 95.1433 6.86346 93.0845 6.86346H91.2684V19.3044Z" fill="white"/>
<path id="Vector_6" d="M116.155 7.28997V45.8864H109.373V7.28997H103.622V0.736084H121.909V7.28997H116.158H116.155Z" fill="white"/>
<path id="Vector_7" d="M140.312 37.3922H135.346L134.438 45.8894H128.322L133.833 0.736084H141.946L147.819 45.8864H141.22L140.312 37.3892V37.3922ZM139.584 30.6551L137.768 13.967L136.012 30.6551H139.584Z" fill="white"/>
<path id="Vector_8" d="M155.087 0.736084L160.961 24.9512V0.736084H167.197V45.8864H161.626L155.087 19.9142V45.8864H148.91V0.736084H155.087Z" fill="white"/>
<path id="Vector_9" d="M169.742 0.736084H180.216C186.09 0.736084 187.906 4.0731 187.906 9.41353V36.9026C187.906 42.4262 185.847 45.8834 180.216 45.8834H169.742V0.736084ZM176.584 39.3325H178.217C180.276 39.3325 180.881 38.2392 180.881 35.8123V10.3867C180.881 7.77656 180.216 6.86646 178.52 6.86646H176.584V39.3325Z" fill="white"/>
</g>
<g id="Group_2">
<path id="Vector_10" d="M0.625 46.8026H11.0991C16.9729 46.8026 18.789 50.1396 18.789 55.48V82.9691C18.789 88.4927 16.7302 91.9499 11.0991 91.9499H0.625V46.7996V46.8026ZM7.46686 85.399H9.10315C11.162 85.399 11.7674 84.3057 11.7674 81.8788V56.4502C11.7674 53.84 11.1021 52.9299 9.40584 52.9299H7.46686V85.396V85.399Z" fill="white"/>
<path id="Vector_11" d="M36.7734 46.8025V53.3564H28.0555V65.1906H34.8973V72.0479H28.0555V85.0956H37.139V91.9528H21.2136V46.8025H36.7734Z" fill="white"/>
<path id="Vector_12" d="M48.0356 92.4398H46.702C41.2536 92.4398 38.3467 89.4663 38.3467 83.8825V74.8416H45.1286V82.7321C45.1286 84.7956 45.7939 85.8889 47.3673 85.8889C48.9406 85.8889 49.6089 84.7956 49.6089 82.0053V80.975C49.6089 77.7582 49.3062 76.6048 46.8248 73.3879L42.4644 67.8042C39.5574 64.0406 38.7093 61.1271 38.7093 56.6367V55.18C38.7093 49.1728 41.7361 46.3794 47.1245 46.3794H48.3952C54.0263 46.3794 56.205 48.8664 56.205 54.2068V61.6107H49.6059V55.1169C49.6059 53.6001 49.3032 52.4467 47.667 52.4467C46.0307 52.4467 45.668 53.4769 45.668 55.6035V56.4535C45.668 59.0036 46.1535 60.3973 48.4521 63.3708L52.8126 69.0146C55.8994 73.0185 56.8703 75.3252 56.8703 80.4224V81.8791C56.8703 88.4931 54.0263 92.4398 48.0296 92.4398H48.0356Z" fill="white"/>
<path id="Vector_13" d="M65.6541 91.9528H58.8123V46.8025H65.6541V91.9528Z" fill="white"/>
<path id="Vector_14" d="M74.558 92.563C70.5631 92.563 68.0188 88.9827 68.0188 84.309V56.0901C68.0188 51.053 69.9578 46.3794 76.434 46.3794H77.7676C85.095 46.3794 85.9431 51.1732 85.9431 56.5136V61.1241H79.284V56.027C79.284 54.0236 78.7985 52.9303 77.1053 52.9303C75.6518 52.9303 74.9865 54.0236 74.9865 56.027V82.4258C74.9865 84.5493 75.8346 85.6426 77.2252 85.6426C78.9814 85.6426 79.7695 84.4292 79.7695 82.7291V71.4415H76.6828V64.5242H86.2488V91.9532H82.3738C82.3139 91.7099 81.7685 89.4662 81.223 87.5229C80.7375 89.0397 78.4389 92.56 74.9865 92.56H74.564L74.558 92.563Z" fill="white"/>
<path id="Vector_15" d="M94.7808 46.8025L100.655 71.0176V46.8025H106.891V91.9528H101.32L94.7808 65.9806V91.9528H88.6042V46.8025H94.7808Z" fill="white"/>
<path id="Vector_16" d="M124.753 92.4398H123.419C117.971 92.4398 115.064 89.4663 115.064 83.8825V74.8416H121.846V82.7321C121.846 84.7956 122.511 85.8889 124.087 85.8889C125.664 85.8889 126.326 84.7956 126.326 82.0053V80.975C126.326 77.7582 126.023 76.6048 123.542 73.3879L119.181 67.8042C116.274 64.0406 115.426 61.1271 115.426 56.6367V55.18C115.426 49.1728 118.453 46.3794 123.842 46.3794H125.115C130.746 46.3794 132.925 48.8664 132.925 54.2068V61.6107H126.326V55.1169C126.326 53.6001 126.023 52.4467 124.39 52.4467C122.757 52.4467 122.391 53.4769 122.391 55.6035V56.4535C122.391 59.0036 122.877 60.3973 125.175 63.3708L129.536 69.0146C132.622 73.0185 133.59 75.3252 133.59 80.4224V81.8791C133.59 88.4931 130.746 92.4398 124.75 92.4398H124.753Z" fill="white"/>
<path id="Vector_17" d="M146.732 82.7919V72.2943H153.454V82.7318C153.454 87.5857 151.88 92.5026 145.278 92.5026H143.765C136.863 92.5026 135.35 87.5256 135.35 82.9751V55.423C135.35 50.8124 137.349 46.3821 143.522 46.3821H145.095C152.603 46.3821 153.451 51.3591 153.451 55.7894V63.8601H146.729V55.9095C146.729 53.9662 146.123 52.936 144.427 52.936C142.731 52.936 142.308 53.9061 142.308 55.9095V82.7318C142.308 84.7352 142.974 85.8255 144.487 85.8255C146.12 85.8255 146.729 84.6121 146.729 82.7919H146.732Z" fill="white"/>
<path id="Vector_18" d="M167.137 72.1111H162.474V91.956H155.632V46.8057H162.474V64.8904H167.137V46.8057H173.979V91.956H167.137V72.1111Z" fill="white"/>
<path id="Vector_19" d="M195.05 81.8821C195.05 88.1927 192.931 92.5029 186.332 92.5029H185.182C178.642 92.5029 176.341 88.1957 176.341 81.8821V56.7569C176.341 50.5064 178.702 46.3794 185.119 46.3794H186.269C192.929 46.3794 195.047 50.5064 195.047 56.6968V81.8821H195.05ZM188.089 56.3934C188.089 54.0266 187.3 52.9333 185.727 52.9333C183.971 52.9333 183.306 54.0867 183.306 56.3934V82.3657C183.306 84.309 183.851 85.8259 185.787 85.8259C187.603 85.8259 188.089 84.309 188.089 82.3657V56.3934Z" fill="white"/>
<path id="Vector_20" d="M215.941 81.8821C215.941 88.1927 213.823 92.5029 207.221 92.5029H206.07C199.531 92.5029 197.229 88.1957 197.229 81.8821V56.7569C197.229 50.5064 199.591 46.3794 206.01 46.3794H207.161C213.82 46.3794 215.938 50.5064 215.938 56.6968V81.8821H215.941ZM208.98 56.3934C208.98 54.0266 208.192 52.9333 206.618 52.9333C204.862 52.9333 204.197 54.0867 204.197 56.3934V82.3657C204.197 84.309 204.739 85.8259 206.678 85.8259C208.494 85.8259 208.98 84.309 208.98 82.3657V56.3934Z" fill="white"/>
<path id="Vector_21" d="M225.142 46.8026V84.9725H233.497V91.9499H218.3V46.7996H225.142V46.8026Z" fill="white"/>
</g>
</g>
</g>
<defs>
<clipPath id="clip0_150_1372">
<rect width="232.875" height="92.25" fill="white" transform="translate(0.625 0.3125)"/>
</clipPath>
</defs>
</svg>
