<svg width="180" height="241" viewBox="0 0 180 241" fill="none" xmlns="http://www.w3.org/2000/svg">
<path d="M96.3125 192.869C85.9438 192.869 76.2969 191.162 67.3719 187.75C58.5781 184.206 50.9 179.284 44.3375 172.984C37.9063 166.553 32.8531 159.137 29.1781 150.737C25.6344 142.206 23.8625 132.887 23.8625 122.781C23.8625 112.675 25.6344 103.422 29.1781 95.0219C32.8531 86.4906 37.9063 79.075 44.3375 72.775C50.9 66.3437 58.5781 61.4219 67.3719 58.0094C76.1656 54.4656 85.8125 52.6937 96.3125 52.6937C106.681 52.6937 116.263 54.4656 125.056 58.0094C133.85 61.4219 141.463 66.2781 147.894 72.5781C154.456 78.8781 159.509 86.2937 163.053 94.825C166.728 103.356 168.566 112.675 168.566 122.781C168.566 132.887 166.728 142.206 163.053 150.737C159.509 159.269 154.456 166.684 147.894 172.984C141.463 179.284 133.85 184.206 125.056 187.75C116.263 191.162 106.681 192.869 96.3125 192.869ZM96.3125 179.875C104.581 179.875 112.194 178.497 119.15 175.741C126.238 172.853 132.341 168.85 137.459 163.731C142.709 158.481 146.778 152.444 149.666 145.619C152.553 138.662 153.997 131.05 153.997 122.781C153.997 114.512 152.553 106.966 149.666 100.141C146.778 93.1844 142.709 87.1469 137.459 82.0281C132.341 76.7781 126.238 72.775 119.15 70.0187C112.194 67.1312 104.581 65.6875 96.3125 65.6875C88.0438 65.6875 80.3656 67.1312 73.2781 70.0187C66.1906 72.775 60.0219 76.7781 54.7719 82.0281C49.6531 87.1469 45.5844 93.1844 42.5656 100.141C39.6781 106.966 38.2344 114.512 38.2344 122.781C38.2344 130.919 39.6781 138.466 42.5656 145.422C45.5844 152.378 49.6531 158.481 54.7719 163.731C60.0219 168.85 66.1906 172.853 73.2781 175.741C80.3656 178.497 88.0438 179.875 96.3125 179.875Z" fill="black"/>
<path d="M28.25 212.75L171.125 212.155" stroke="#6E39F2" stroke-width="5.625"/>
<path d="M2.9375 190.812L2.9375 50.1875" stroke="#6E39F2" stroke-width="5.625"/>
</svg>
